<?xml version="1.0" encoding="UTF-8"?>
<svg width="244px" height="76px" viewBox="0 0 244 76" version="1.1" xmlns="http://www.w3.org/2000/svg" xmlns:xlink="http://www.w3.org/1999/xlink">
    <!-- Dynamic: Sketch 48 (47235) - http://www.bohemiancoding.com/sketch -->
    <title>CJIB_logo</title>
    <desc>Created with Sketch.</desc>
    <defs></defs>
    <g id="Page-1" stroke="none" stroke-width="1" fill="none" fill-rule="evenodd">
        <g id="CJIB_logo" fill-rule="nonzero">
            <rect id="Rectangle-path" fill="#154273" x="0" y="0" width="44.9399986" height="75.9499969"></rect>
            <path d="M23.1711742,55.5883896 L22.4715959,55.5883896 L22.4715959,53.3637258 L23.2877706,53.3637258 L23.2877706,55.5883896 L23.1711742,55.5883896 Z M26.6690657,46.1042965 L25.852891,46.1042965 L25.852891,43.9967202 L26.6690657,43.9967202 L26.6690657,46.1042965 Z M12.3277106,42.3574943 C12.2111142,42.3574943 11.8613251,42.3574943 11.8613251,42.4745818 C11.8613251,42.5916694 12.0945179,42.4745818 12.3277106,42.5916694 C12.9106925,42.708757 13.1438853,43.0600197 13.6102708,43.0600197 C13.96006,43.0600197 14.4264455,42.8258445 14.1932527,42.2404067 C14.1932527,42.1233191 14.0766564,42.1233191 14.0766564,42.2404067 C13.96006,42.4745818 13.7268672,42.5916694 13.3770781,42.5916694 C13.1438853,42.4745818 13.0272889,42.3574943 12.3277106,42.3574943 Z M8.13024084,44.4650705 C8.24683723,44.5821581 8.94641552,45.5188586 7.78045169,45.8701213 C7.78045169,45.8701213 7.66385531,45.9872089 7.78045169,45.9872089 C8.59662637,46.3384716 9.0630119,45.7530338 9.0630119,45.7530338 C9.52939744,46.6897343 8.82981914,47.2751722 8.82981914,47.2751722 C8.94641552,47.3922597 9.29620467,47.7435225 9.87918658,47.86061 C10.1123793,47.7435225 10.4621685,47.5093473 10.5787649,47.1580846 C10.5787649,47.1580846 10.6953613,47.6264349 10.5787649,47.9776976 C12.2111142,48.0947852 12.9106925,46.8068219 14.1932527,47.040997 C14.1932527,46.221384 13.7268672,44.6992456 12.0945179,44.3479829 C10.4621685,43.9967202 10.928554,43.4112824 10.928554,43.4112824 C11.6281323,43.4112824 11.9779215,43.6454575 11.9779215,43.6454575 C12.0945179,43.4112824 11.9779215,43.1771072 11.9779215,43.1771072 C12.0945179,43.0600197 12.0945179,42.8258445 12.0945179,42.8258445 C11.2783432,42.8258445 11.1617468,42.708757 11.1617468,42.708757 C11.0451504,42.2404067 11.3949396,41.6549688 12.444307,42.3574943 C12.6774998,42.1233191 12.6774998,41.7720564 12.6774998,41.7720564 C12.7940962,41.7720564 12.7940962,41.6549688 12.7940962,41.5378813 C12.7940962,41.3037061 11.8613251,40.8353558 11.6281323,40.8353558 C11.6281323,40.6011807 11.2783432,40.1328304 10.1123793,40.249918 C9.64599382,40.3670056 9.29620467,40.1328304 9.41280105,39.8986553 C9.41280105,39.8986553 9.29620467,39.7815677 9.29620467,39.8986553 C9.17960829,40.0157429 9.0630119,40.3670056 9.41280105,40.6011807 C9.87918658,40.8353558 9.87918658,41.3037061 9.87918658,41.4207937 C9.87918658,41.5378813 9.7625902,41.5378813 9.7625902,41.4207937 C9.52939744,40.6011807 8.36343361,40.3670056 7.78045169,40.8353558 C7.78045169,41.3037061 8.24683723,41.5378813 8.59662637,41.5378813 C8.71322276,41.5378813 8.94641552,41.4207937 8.94641552,41.1866186 C8.94641552,41.069531 8.94641552,41.069531 9.0630119,41.1866186 C9.17960829,41.5378813 8.71322276,42.1233191 8.13024084,41.7720564 C7.43066255,42.4745818 7.78045169,43.2941948 7.78045169,43.5283699 C7.89704808,44.1138078 7.66385531,44.5821581 7.19746978,44.3479829 C7.19746978,44.4650705 7.54725893,44.8163332 8.13024084,44.4650705 Z M11.7447287,41.1866186 C11.3949396,41.5378813 10.928554,41.4207937 10.8119576,40.8353558 C11.3949396,40.8353558 11.7447287,40.9524434 11.7447287,41.1866186 Z M31.332921,42.4745818 C30.9831319,42.4745818 30.6333427,42.3574943 30.6333427,42.1233191 C30.6333427,42.0062315 30.5167463,42.0062315 30.5167463,42.1233191 C30.40015,42.708757 30.7499391,42.9429321 31.0997283,42.9429321 C31.5661138,42.9429321 31.7993065,42.5916694 32.3822885,42.4745818 C32.6154812,42.4745818 32.848674,42.4745818 32.848674,42.3574943 C32.848674,42.2404067 32.4988848,42.2404067 32.3822885,42.2404067 C31.7993065,42.3574943 31.6827102,42.4745818 31.332921,42.4745818 Z M37.6291257,44.1138078 C37.6291257,43.9967202 37.6291257,43.9967202 37.6291257,44.1138078 C37.0461438,44.3479829 36.812951,43.7625451 36.9295474,43.2941948 C37.0461438,42.9429321 37.2793365,42.1233191 36.5797582,41.5378813 C35.8801799,41.889144 35.5303908,41.3037061 35.6469872,40.9524434 C35.6469872,40.8353558 35.7635836,40.8353558 35.7635836,40.9524434 C35.7635836,41.1866186 35.9967763,41.3037061 36.1133727,41.3037061 C36.3465655,41.3037061 36.812951,40.9524434 36.9295474,40.6011807 C36.2299691,40.1328304 35.1806016,40.3670056 34.9474089,41.1866186 C34.9474089,41.3037061 34.8308125,41.3037061 34.8308125,41.1866186 C34.8308125,41.069531 34.8308125,40.6011807 35.297198,40.3670056 C35.7635836,40.1328304 35.5303908,39.7815677 35.4137944,39.6644801 L35.297198,39.6644801 C35.4137944,40.0157429 35.0640053,40.1328304 34.5976197,40.0157429 C33.5482523,39.8986553 33.1984631,40.249918 33.0818668,40.6011807 C32.848674,40.7182683 31.9159029,41.1866186 31.9159029,41.3037061 C31.9159029,41.3037061 31.9159029,41.5378813 32.0324993,41.5378813 C32.0324993,41.5378813 32.0324993,41.889144 32.2656921,42.1233191 C33.4316559,41.4207937 33.6648487,42.1233191 33.5482523,42.4745818 C33.5482523,42.4745818 33.3150595,42.5916694 32.6154812,42.5916694 C32.6154812,42.5916694 32.6154812,42.8258445 32.7320776,42.9429321 C32.7320776,42.9429321 32.6154812,43.1771072 32.7320776,43.4112824 C32.7320776,43.4112824 33.0818668,43.0600197 33.7814451,43.1771072 C33.7814451,43.1771072 34.2478306,43.8796327 32.6154812,44.1138078 C30.9831319,44.4650705 30.5167463,45.9872089 30.5167463,46.8068219 C30.5167463,46.8068219 30.5167463,46.9239095 30.5167463,46.8068219 C31.7993065,46.5726468 32.3822885,47.86061 34.1312342,47.7435225 C34.0146378,47.3922597 34.1312342,46.9239095 34.1312342,46.9239095 C34.2478306,47.2751722 34.5976197,47.5093473 34.8308125,47.6264349 C35.4137944,47.5093473 35.8801799,47.1580846 35.8801799,47.040997 C35.8801799,47.040997 35.297198,46.4555592 35.6469872,45.5188586 C35.6469872,45.5188586 35.9967763,46.1042965 36.9295474,45.7530338 C37.0461438,45.7530338 36.9295474,45.6359462 36.9295474,45.6359462 C35.7635836,45.2846835 36.5797582,44.3479829 36.5797582,44.2308954 C37.2793365,44.8163332 37.6291257,44.4650705 37.6291257,44.1138078 Z M34.0146378,40.8353558 C33.8980414,41.4207937 33.4316559,41.5378813 33.0818668,41.1866186 C33.0818668,40.9524434 33.4316559,40.8353558 34.0146378,40.8353558 Z M22.1218068,31.3512627 C22.1218068,31.4683503 22.2384032,31.5854378 22.2384032,31.7025254 C22.3549995,31.819613 22.3549995,31.9367006 22.2384032,31.9367006 C22.2384032,31.9367006 22.1218068,32.0537881 22.0052104,31.9367006 C21.888614,31.9367006 21.7720176,31.819613 21.6554212,31.819613 C21.4222285,31.819613 21.3056321,31.9367006 21.3056321,32.1708757 C21.3056321,32.4050508 21.4222285,32.5221384 21.6554212,32.5221384 C21.7720176,32.5221384 21.888614,32.4050508 22.0052104,32.4050508 C22.1218068,32.2879633 22.2384032,32.2879633 22.2384032,32.4050508 C22.2384032,32.4050508 22.2384032,32.9904887 22.1218068,33.3417514 C21.7720176,33.458839 21.5388249,33.6930141 21.5388249,33.9271892 C21.5388249,34.3955395 22.0052104,34.7468022 22.3549995,34.8638898 C22.7047887,34.7468022 23.1711742,34.3955395 23.1711742,33.9271892 C23.1711742,33.6930141 22.9379815,33.458839 22.5881923,33.3417514 C22.5881923,32.9904887 22.4715959,32.5221384 22.4715959,32.4050508 C22.4715959,32.4050508 22.5881923,32.2879633 22.7047887,32.4050508 C22.8213851,32.4050508 22.9379815,32.5221384 23.0545778,32.5221384 C23.2877706,32.5221384 23.404367,32.4050508 23.404367,32.1708757 C23.404367,31.9367006 23.2877706,31.819613 23.0545778,31.819613 C22.9379815,31.819613 22.8213851,31.9367006 22.7047887,31.9367006 C22.5881923,32.0537881 22.4715959,32.0537881 22.4715959,31.9367006 C22.4715959,31.9367006 22.3549995,31.819613 22.4715959,31.7025254 C22.4715959,31.5854378 22.5881923,31.4683503 22.5881923,31.3512627 C22.5881923,31.1170876 22.4715959,31 22.2384032,31 C22.2384032,31 22.1218068,31.1170876 22.1218068,31.3512627 Z M22.4715959,34.9809774 C22.1218068,34.9809774 21.888614,35.2151525 21.888614,35.5664152 C21.888614,35.9176779 22.1218068,36.1518531 22.4715959,36.1518531 C22.8213851,36.1518531 23.0545778,35.9176779 23.0545778,35.5664152 C23.0545778,35.2151525 22.7047887,34.9809774 22.4715959,34.9809774 Z M22.4715959,40.7182683 C24.8035236,40.7182683 26.2026802,41.1866186 26.2026802,41.1866186 C26.2026802,40.0157429 26.2026802,39.3132174 26.9022585,39.430305 C26.5524693,38.3765169 28.1848187,38.0252542 28.1848187,36.7372909 C28.1848187,35.9176779 27.6018368,35.8005904 27.368644,35.8005904 C26.7856621,35.8005904 26.9022585,36.1518531 26.4358729,36.1518531 L26.3192766,36.1518531 C26.3192766,36.2689406 26.4358729,36.6202033 26.6690657,36.6202033 C26.9022585,36.6202033 26.9022585,36.3860282 27.1354512,36.3860282 C27.2520476,36.3860282 27.368644,36.5031158 27.368644,36.7372909 C27.368644,37.3227288 27.0188549,37.9081666 26.5524693,38.3765169 C26.4358729,38.2594293 26.3192766,38.1423417 26.2026802,38.1423417 C25.9694874,38.1423417 25.7362946,38.3765169 25.7362946,38.7277796 C25.7362946,38.8448672 25.7362946,38.9619547 25.852891,39.0790423 C25.7362946,39.1961299 25.6196983,39.1961299 25.5031019,39.1961299 C25.2699091,39.1961299 25.0367163,39.0790423 25.0367163,38.7277796 C25.0367163,37.791079 26.3192766,36.971466 26.3192766,35.6835028 C26.3192766,35.0980649 25.9694874,34.5126271 25.1533127,34.5126271 C24.337138,34.5126271 24.4537344,35.3322401 23.7541561,35.3322401 L23.6375598,35.3322401 C23.6375598,35.3322401 23.7541561,35.8005904 24.1039453,35.8005904 C24.5703308,35.8005904 24.6869272,35.0980649 25.0367163,35.0980649 C25.1533127,35.0980649 25.3865055,35.2151525 25.3865055,35.6835028 C25.3865055,36.0347655 25.1533127,36.6202033 24.92012,37.2056412 C24.5703308,36.971466 24.4537344,36.971466 24.337138,36.971466 C23.9873489,36.971466 23.7541561,37.3227288 23.7541561,37.6739915 C23.7541561,37.9081666 23.8707525,38.1423417 23.9873489,38.2594293 C23.7541561,38.4936045 23.6375598,38.7277796 23.404367,38.7277796 C22.9379815,38.7277796 22.7047887,38.3765169 22.7047887,38.1423417 C22.7047887,37.791079 23.2877706,37.6739915 23.2877706,37.0885536 C23.2877706,36.7372909 23.0545778,36.5031158 22.8213851,36.5031158 C22.5881923,36.5031158 22.4715959,36.6202033 22.4715959,36.6202033 C22.4715959,36.6202033 22.3549995,36.5031158 22.1218068,36.5031158 C21.888614,36.5031158 21.6554212,36.7372909 21.6554212,37.0885536 C21.6554212,37.6739915 22.2384032,37.791079 22.2384032,38.1423417 C22.2384032,38.4936045 22.0052104,38.7277796 21.5388249,38.7277796 C21.3056321,38.7277796 21.0724393,38.4936045 20.9558429,38.2594293 C21.0724393,38.1423417 21.1890357,37.9081666 21.1890357,37.6739915 C21.1890357,37.3227288 20.9558429,36.971466 20.6060538,36.971466 C20.4894574,36.971466 20.372861,37.0885536 20.2562647,37.0885536 C20.0230719,36.5031158 19.7898791,35.9176779 19.7898791,35.5664152 C19.7898791,35.0980649 20.0230719,34.9809774 20.1396683,34.9809774 C20.4894574,34.9809774 20.6060538,35.6835028 21.0724393,35.6835028 C21.4222285,35.6835028 21.5388249,35.2151525 21.5388249,35.2151525 C21.5388249,35.2151525 21.5388249,35.2151525 21.4222285,35.2151525 C20.7226502,35.2151525 20.8392466,34.3955395 20.0230719,34.3955395 C19.2068972,34.3955395 18.8571081,34.9809774 18.8571081,35.5664152 C18.8571081,36.7372909 20.1396683,37.5569039 20.1396683,38.610692 C20.1396683,39.0790423 19.7898791,39.0790423 19.6732827,39.0790423 C19.5566864,39.0790423 19.44009,39.0790423 19.3234936,38.9619547 C19.3234936,38.8448672 19.44009,38.7277796 19.44009,38.610692 C19.44009,38.2594293 19.2068972,38.0252542 18.9737044,38.0252542 C18.8571081,38.0252542 18.6239153,38.1423417 18.6239153,38.2594293 C18.1575298,37.791079 17.8077406,37.2056412 17.8077406,36.6202033 C17.8077406,36.3860282 17.924337,36.2689406 18.0409334,36.2689406 C18.2741261,36.2689406 18.2741261,36.5031158 18.5073189,36.5031158 C18.7405117,36.5031158 18.8571081,36.2689406 18.8571081,36.0347655 C18.8571081,36.0347655 18.8571081,36.0347655 18.7405117,36.0347655 C18.2741261,36.0347655 18.3907225,35.6835028 17.8077406,35.6835028 C17.5745478,35.6835028 16.9915659,35.8005904 16.9915659,36.6202033 C16.9915659,37.9081666 18.6239153,38.3765169 18.2741261,39.3132174 C18.9737044,39.1961299 18.9737044,39.8986553 18.9737044,41.069531 C18.7405117,41.1866186 20.0230719,40.7182683 22.4715959,40.7182683 Z M18.0409334,42.4745818 C17.3413551,42.5916694 16.9915659,42.708757 16.7583732,42.8258445 C16.7583732,42.5916694 16.8749696,42.2404067 17.1081623,42.2404067 C17.1081623,42.2404067 17.1081623,42.2404067 17.1081623,42.1233191 C16.5251804,41.7720564 16.1753913,42.4745818 16.1753913,42.4745818 C15.9421985,42.4745818 15.7090057,42.4745818 15.7090057,42.8258445 C15.7090057,43.6454575 13.8434636,44.1138078 13.3770781,44.2308954 C14.1932527,44.5821581 14.4264455,45.5188586 14.4264455,45.5188586 C15.0094274,44.9334208 15.5924093,44.4650705 15.8256021,44.4650705 C15.9421985,44.4650705 16.0587949,44.6992456 16.0587949,44.8163332 C16.0587949,44.8163332 16.0587949,44.8163332 16.1753913,44.8163332 C16.5251804,44.3479829 16.2919876,44.2308954 16.2919876,44.1138078 C16.2919876,43.9967202 16.2919876,43.6454575 16.7583732,43.6454575 L16.7583732,49.1485733 L16.5251804,49.1485733 C16.408584,49.1485733 15.5924093,48.4460479 14.6596383,47.86061 C13.7268672,47.2751722 13.2604817,47.6264349 12.2111142,48.2118727 C10.8119576,48.9143981 9.41280105,48.3289603 9.41280105,48.3289603 C8.24683723,49.1485733 7.78045169,51.6074122 7.78045169,51.6074122 C7.54725893,51.7244998 7.19746978,51.8415874 6.73108425,51.8415874 C5.79831319,51.8415874 5.6817168,51.2561495 5.6817168,51.0219744 C5.6817168,49.6169236 7.43066255,49.0314857 7.43066255,47.6264349 C7.43066255,47.2751722 7.31406616,45.9872089 5.56512042,45.9872089 C5.33192766,45.9872089 4.04936745,45.9872089 4.04936745,45.9872089 C3.46638553,45.9872089 3.23319277,45.5188586 3.23319277,45.4017711 C3.23319277,45.2846835 3.11659638,45.4017711 3.11659638,45.4017711 C3.11659638,45.5188586 3,45.6359462 3,45.9872089 C3,46.5726468 3.34978915,46.9239095 3.93277106,46.9239095 C4.16596383,46.9239095 4.51575298,46.8068219 4.51575298,46.8068219 L4.63234936,46.8068219 C4.39915659,47.1580846 4.39915659,47.7435225 4.39915659,47.86061 L4.51575298,47.86061 C4.63234936,47.2751722 5.21533127,46.6897343 5.91490957,46.6897343 C6.84768063,46.6897343 6.84768063,47.5093473 6.84768063,47.6264349 C6.84768063,48.7973106 4.86554212,49.6169236 4.86554212,51.139062 C4.86554212,52.6612004 6.49789148,53.0124631 7.43066255,52.7782879 C7.43066255,54.3004263 5.56512042,54.8858642 5.56512042,53.7149885 C5.56512042,53.7149885 5.56512042,53.5979009 5.44852404,53.7149885 C5.21533127,54.3004263 5.33192766,54.7687766 6.03150595,54.8858642 C6.03150595,54.8858642 6.03150595,54.8858642 6.03150595,55.0029518 C5.33192766,55.471302 5.6817168,57.2276156 5.79831319,57.6959659 C5.79831319,58.3984913 5.09873489,58.3984913 5.09873489,58.2814037 C5.09873489,58.2814037 4.98213851,58.2814037 5.09873489,58.3984913 C5.56512042,58.9839291 6.26469872,58.3984913 6.26469872,58.3984913 C6.73108425,58.5155789 6.49789148,58.9839291 6.14810234,59.2181043 L6.14810234,59.3351918 C6.26469872,59.3351918 6.96427701,59.4522794 7.0808734,58.749754 C7.43066255,59.1010167 7.89704808,58.9839291 8.01364446,58.9839291 C8.13024084,58.8668416 8.82981914,58.6326664 8.94641552,59.4522794 C8.94641552,59.4522794 8.94641552,59.4522794 9.0630119,59.4522794 C9.64599382,58.749754 9.0630119,58.3984913 8.71322276,58.2814037 C8.71322276,58.2814037 9.17960829,57.930141 9.52939744,58.3984913 C9.52939744,57.5788783 8.94641552,57.4617907 8.48002999,57.8130534 C8.48002999,57.6959659 8.36343361,57.2276156 8.94641552,57.2276156 C8.48002999,56.6421777 8.01364446,57.2276156 7.89704808,57.3447032 C7.66385531,57.5788783 7.0808734,57.4617907 7.0808734,57.4617907 C7.31406616,54.5346015 9.87918658,55.5883896 10.2289757,54.1833388 C10.2289757,54.0662512 10.2289757,54.1833388 10.2289757,54.1833388 C10.3455721,54.5346015 11.1617468,54.5346015 11.3949396,53.9491636 C11.3949396,53.9491636 11.3949396,53.8320761 11.3949396,53.9491636 C10.6953613,54.6516891 8.94641552,52.3099377 11.2783432,50.4365366 C13.2604817,48.7973106 15.0094274,49.7340111 15.5924093,50.2023614 C15.5924093,50.4365366 15.475813,50.5536241 15.3592166,50.5536241 C15.3592166,50.5536241 15.3592166,50.5536241 15.3592166,50.6707117 C15.5924093,50.7877993 15.8256021,50.6707117 15.9421985,50.5536241 C16.408584,50.9048868 16.0587949,51.2561495 15.8256021,51.3732371 C15.8256021,51.3732371 15.8256021,51.3732371 15.8256021,51.4903247 C16.1753913,51.6074122 16.5251804,51.139062 16.5251804,50.9048868 L16.6417768,50.9048868 L16.6417768,52.1928501 C16.6417768,54.5346015 19.3234936,54.8858642 22.3549995,56.8763529 C25.3865055,54.8858642 28.0682223,54.5346015 28.0682223,52.1928501 L28.0682223,50.5536241 L28.1848187,50.5536241 C28.1848187,50.7877993 28.5346078,51.139062 28.884397,51.139062 C28.884397,51.139062 28.884397,51.139062 28.884397,51.0219744 C28.7678006,50.9048868 28.3014151,50.5536241 28.7678006,50.2023614 C28.884397,50.319449 29.1175897,50.4365366 29.3507825,50.319449 C29.3507825,50.319449 29.3507825,50.319449 29.3507825,50.2023614 C29.2341861,50.2023614 29.1175897,50.0852738 29.1175897,49.8510987 C29.817168,49.2656609 31.5661138,48.4460479 33.4316559,50.0852738 C35.7635836,51.958675 34.0146378,54.3004263 33.3150595,53.5979009 C33.4316559,54.3004263 34.364427,54.1833388 34.4810234,53.8320761 C34.8308125,55.2371269 37.3959329,54.1833388 37.6291257,57.110528 C37.6291257,57.110528 37.0461438,57.2276156 36.812951,56.9934404 C36.6963546,56.8763529 36.2299691,56.4080026 35.7635836,56.8763529 C36.4631619,56.8763529 36.2299691,57.3447032 36.2299691,57.4617907 C35.7635836,57.110528 35.0640053,57.2276156 35.1806016,58.0472286 C35.1806016,58.1643161 35.1806016,58.1643161 35.1806016,58.0472286 C35.5303908,57.5788783 35.9967763,57.930141 35.9967763,57.930141 C35.6469872,57.930141 35.0640053,58.3984913 35.6469872,59.1010167 C35.6469872,59.1010167 35.6469872,59.2181043 35.7635836,59.1010167 C35.8801799,58.2814037 36.5797582,58.5155789 36.6963546,58.6326664 C36.812951,58.6326664 37.2793365,58.8668416 37.6291257,58.3984913 C37.7457221,58.9839291 38.5618967,58.9839291 38.5618967,58.9839291 C38.5618967,58.9839291 38.5618967,58.9839291 38.5618967,58.8668416 C38.2121076,58.6326664 37.9789148,58.2814037 38.4453004,58.0472286 C38.4453004,58.0472286 39.0282823,58.6326664 39.6112642,58.0472286 L39.6112642,57.930141 C39.4946678,57.930141 38.7950895,58.0472286 38.9116859,57.3447032 C38.9116859,56.8763529 39.261475,55.1200393 38.6784931,54.6516891 C38.6784931,54.6516891 38.5618967,54.6516891 38.6784931,54.5346015 C39.3780714,54.4175139 39.4946678,53.9491636 39.261475,53.3637258 C39.261475,53.2466382 39.1448787,53.3637258 39.1448787,53.3637258 C39.1448787,54.5346015 37.2793365,53.9491636 37.2793365,52.4270252 C38.2121076,52.6612004 39.844457,52.3099377 39.844457,50.7877993 C39.844457,49.2656609 37.8623185,48.4460479 37.8623185,47.2751722 C37.8623185,47.040997 37.8623185,46.3384716 38.7950895,46.3384716 C39.4946678,46.3384716 40.0776497,46.9239095 40.1942461,47.5093473 C40.1942461,47.5093473 40.1942461,47.5093473 40.3108425,47.5093473 C40.4274389,47.3922597 40.4274389,46.8068219 40.0776497,46.4555592 C40.0776497,46.4555592 40.0776497,46.3384716 40.1942461,46.4555592 C40.3108425,46.4555592 40.5440353,46.5726468 40.777228,46.5726468 C41.3602099,46.5726468 41.7099991,46.221384 41.7099991,45.6359462 C41.7099991,45.2846835 41.5934027,45.1675959 41.5934027,45.0505084 C41.5934027,45.0505084 41.5934027,44.9334208 41.4768063,45.0505084 C41.3602099,45.1675959 41.2436136,45.6359462 40.6606316,45.6359462 C40.6606316,45.6359462 39.3780714,45.6359462 39.1448787,45.6359462 C37.5125293,45.6359462 37.2793365,47.040997 37.2793365,47.2751722 C37.2793365,48.680223 39.0282823,49.2656609 39.0282823,50.6707117 C39.0282823,51.0219744 38.9116859,51.4903247 37.9789148,51.4903247 C37.6291257,51.4903247 37.1627402,51.3732371 36.9295474,51.2561495 C36.9295474,51.2561495 36.5797582,48.7973106 35.297198,47.9776976 C35.297198,47.9776976 33.8980414,48.680223 32.4988848,47.86061 C31.4495174,47.2751722 30.9831319,46.9239095 30.0503608,47.5093473 C29.1175897,48.0947852 28.3014151,48.7973106 28.1848187,48.7973106 L27.9516259,48.7973106 L27.9516259,43.2941948 C28.4180114,43.2941948 28.4180114,43.6454575 28.4180114,43.7625451 C28.4180114,43.8796327 28.3014151,43.9967202 28.5346078,44.4650705 C28.5346078,44.4650705 28.5346078,44.4650705 28.6512042,44.4650705 C28.6512042,44.3479829 28.7678006,44.1138078 28.884397,44.1138078 C29.0009934,44.1138078 29.7005717,44.5821581 30.2835536,45.1675959 C30.2835536,45.1675959 30.6333427,44.2308954 31.332921,43.8796327 C30.8665355,43.7625451 29.0009934,43.4112824 29.0009934,42.4745818 C29.0009934,42.2404067 28.6512042,42.1233191 28.5346078,42.1233191 C28.5346078,42.1233191 28.1848187,41.4207937 27.6018368,41.7720564 L27.6018368,41.889144 C27.8350295,42.0062315 27.9516259,42.2404067 27.9516259,42.4745818 C27.368644,42.3574943 25.0367163,41.6549688 22.3549995,41.6549688 C20.9558429,41.6549688 19.7898791,41.7720564 18.7405117,42.0062315 L18.7405117,43.8796327 L17.924337,43.8796327 L17.924337,42.4745818 L18.0409334,42.4745818 Z M12.9106925,62.0282059 C12.6774998,61.9111184 12.5609034,61.7940308 12.5609034,61.5598557 L12.5609034,60.38898 C12.2111142,60.2718924 11.2783432,59.9206297 9.41280105,59.9206297 C7.89704808,59.9206297 7.43066255,60.2718924 7.43066255,60.38898 L7.0808734,62.6136438 C7.0808734,62.6136438 7.66385531,62.0282059 9.87918658,62.1452935 C12.5609034,62.2623811 15.3592166,63.9016071 15.3592166,62.2623811 L15.3592166,61.208593 C13.2604817,61.3256805 12.9106925,61.9111184 12.9106925,62.0282059 Z M29.4673789,61.3256805 L29.4673789,62.3794687 C29.4673789,64.0186946 32.2656921,62.4965562 34.9474089,62.2623811 C37.1627402,62.1452935 37.7457221,62.7307314 37.7457221,62.7307314 L37.3959329,60.38898 C37.3959329,60.2718924 36.9295474,59.9206297 35.4137944,59.9206297 C33.5482523,59.9206297 32.6154812,60.2718924 32.2656921,60.38898 L32.2656921,61.5598557 C32.2656921,61.7940308 32.1490957,61.9111184 31.9159029,62.0282059 C31.9159029,61.9111184 31.5661138,61.3256805 29.4673789,61.3256805 Z M22.4715959,60.2718924 C26.7856621,60.2718924 31.2163246,60.5060675 31.7993065,61.208593 L31.9159029,61.208593 L31.9159029,58.8668416 C31.9159029,58.1643161 27.368644,57.8130534 22.5881923,57.8130534 C17.8077406,57.8130534 13.2604817,58.1643161 13.2604817,58.8668416 L13.2604817,61.208593 C13.2604817,61.208593 13.2604817,61.3256805 13.3770781,61.208593 C13.7268672,60.5060675 18.0409334,60.2718924 22.4715959,60.2718924 Z M18.5073189,49.3827484 L18.0409334,49.2656609 L17.5745478,49.0314857 C17.5745478,49.0314857 17.924337,49.0314857 18.0409334,49.0314857 C17.8077406,48.9143981 17.6911442,48.680223 17.6911442,48.680223 C17.6911442,48.680223 17.924337,48.7973106 18.1575298,48.9143981 C18.0409334,48.680223 17.8077406,48.4460479 17.8077406,48.4460479 C17.8077406,48.4460479 18.1575298,48.680223 18.2741261,48.7973106 C18.1575298,48.5631354 18.0409334,48.2118727 18.0409334,48.2118727 L18.5073189,48.680223 C18.5073189,48.4460479 18.3907225,48.0947852 18.3907225,48.0947852 L18.7405117,48.5631354 C18.7405117,48.4460479 18.7405117,47.9776976 18.7405117,47.9776976 C18.7405117,47.9776976 18.8571081,48.3289603 18.9737044,48.4460479 L19.0903008,48.0947852 L19.0903008,48.680223 L18.9737044,48.680223 L18.8571081,49.3827484 C19.5566864,49.2656609 20.372861,48.0947852 20.9558429,48.0947852 C21.6554212,48.0947852 22.0052104,48.9143981 23.2877706,48.5631354 C23.6375598,49.0314857 23.7541561,49.499836 23.8707525,50.0852738 C24.4537344,50.5536241 25.1533127,50.4365366 25.1533127,49.8510987 C25.1533127,49.1485733 24.337138,49.0314857 24.337138,48.2118727 C24.337138,47.86061 24.5703308,47.3922597 25.1533127,47.3922597 C25.5031019,47.3922597 25.9694874,47.5093473 26.2026802,47.5093473 C26.5524693,47.5093473 26.5524693,47.2751722 26.6690657,47.1580846 C26.6690657,47.040997 26.7856621,47.1580846 26.7856621,47.1580846 C26.7856621,47.2751722 26.7856621,47.2751722 26.7856621,47.5093473 C26.7856621,47.9776976 26.0860838,48.0947852 25.9694874,47.9776976 C25.9694874,47.9776976 25.852891,47.9776976 25.9694874,47.9776976 C26.0860838,48.0947852 26.0860838,48.3289603 25.9694874,48.5631354 C25.852891,48.2118727 25.5031019,47.86061 25.1533127,47.86061 C25.0367163,47.86061 24.8035236,47.9776976 24.8035236,48.2118727 C24.8035236,48.680223 25.6196983,49.0314857 25.6196983,49.8510987 C25.6196983,50.7877993 24.6869272,51.0219744 23.8707525,50.7877993 C23.8707525,51.6074122 25.1533127,52.1928501 25.2699091,51.4903247 C25.5031019,51.7244998 25.3865055,51.958675 25.1533127,52.0757625 C25.3865055,52.1928501 25.3865055,52.6612004 25.5031019,52.8953755 C25.6196983,53.2466382 26.0860838,53.1295507 26.0860838,53.0124631 C25.9694874,53.4808134 25.5031019,53.2466382 25.5031019,53.2466382 C25.2699091,53.3637258 25.5031019,53.5979009 25.7362946,53.5979009 C25.6196983,53.5979009 25.2699091,53.7149885 25.1533127,53.4808134 C25.0367163,53.7149885 24.8035236,53.7149885 24.6869272,53.7149885 C24.5703308,53.7149885 24.4537344,53.8320761 24.4537344,54.0662512 C24.1039453,53.8320761 24.337138,53.4808134 24.4537344,53.3637258 C24.4537344,53.3637258 24.1039453,53.2466382 23.9873489,53.5979009 C24.1039453,53.3637258 24.4537344,53.2466382 24.8035236,53.3637258 C24.8035236,53.2466382 24.6869272,53.1295507 24.337138,53.1295507 C24.337138,53.0124631 24.5703308,52.7782879 24.92012,53.0124631 C25.0367163,53.1295507 25.3865055,53.0124631 25.3865055,52.8953755 C24.8035236,51.7244998 23.7541561,52.6612004 23.404367,51.8415874 C23.2877706,52.0757625 22.8213851,52.0757625 22.8213851,51.7244998 C22.9379815,51.8415874 23.0545778,51.8415874 23.2877706,51.6074122 C23.404367,51.3732371 23.404367,51.139062 23.404367,51.0219744 C23.404367,50.319449 22.7047887,49.1485733 21.6554212,49.1485733 C20.9558429,49.1485733 20.2562647,49.3827484 19.6732827,49.8510987 L20.1396683,49.9681863 C20.1396683,50.4365366 19.5566864,50.7877993 19.0903008,50.6707117 L19.2068972,50.0852738 C19.0903008,50.0852738 18.9737044,50.2023614 18.8571081,50.319449 C18.7405117,49.9681863 19.0903008,49.8510987 19.0903008,49.7340111 C18.8571081,49.7340111 18.7405117,49.8510987 18.6239153,49.9681863 C18.5073189,49.7340111 18.5073189,49.499836 18.5073189,49.3827484 Z M20.0230719,53.3637258 C19.7898791,53.5979009 19.6732827,53.3637258 19.44009,53.3637258 C19.2068972,53.3637258 19.2068972,53.5979009 19.2068972,53.5979009 C18.9737044,53.2466382 19.2068972,53.0124631 19.44009,53.0124631 C19.44009,53.0124631 19.0903008,52.7782879 18.9737044,53.0124631 C18.9737044,52.5441128 19.3234936,52.5441128 19.5566864,52.6612004 C19.5566864,52.5441128 19.44009,52.3099377 19.3234936,52.3099377 C19.44009,52.1928501 19.44009,52.1928501 19.5566864,52.1928501 C19.7898791,52.1928501 19.7898791,52.5441128 20.0230719,52.5441128 C20.2562647,52.5441128 20.6060538,52.1928501 20.7226502,52.1928501 C20.7226502,52.1928501 20.4894574,51.4903247 20.4894574,51.139062 C20.372861,51.2561495 20.0230719,51.2561495 20.0230719,50.7877993 C20.1396683,51.0219744 20.372861,50.7877993 20.4894574,50.6707117 C20.6060538,50.5536241 21.1890357,49.6169236 22.1218068,49.6169236 C22.3549995,49.6169236 22.5881923,49.7340111 22.7047887,49.8510987 C22.3549995,50.2023614 22.7047887,50.5536241 22.9379815,50.5536241 C21.7720176,51.0219744 21.3056321,51.139062 21.3056321,52.0757625 C21.3056321,52.5441128 21.4222285,52.8953755 21.7720176,52.7782879 C21.6554212,52.8953755 21.5388249,52.8953755 21.4222285,52.8953755 C21.1890357,52.8953755 21.1890357,52.7782879 21.0724393,52.7782879 C20.9558429,52.7782879 20.4894574,53.0124631 20.4894574,53.2466382 C20.4894574,53.3637258 20.4894574,53.4808134 20.7226502,53.4808134 C20.4894574,53.7149885 20.1396683,53.7149885 20.0230719,53.3637258 Z M23.0545778,44.2308954 C22.7047887,44.2308954 22.4715959,44.2308954 22.4715959,44.3479829 C22.5881923,44.5821581 22.8213851,44.5821581 23.0545778,44.2308954 Z M21.7720176,45.1675959 C22.0052104,45.0505084 22.2384032,45.1675959 22.3549995,45.1675959 L22.3549995,45.2846835 C21.888614,45.4017711 21.7720176,45.6359462 21.5388249,45.6359462 C21.3056321,45.6359462 21.0724393,45.4017711 21.1890357,45.0505084 C21.0724393,45.0505084 21.3056321,45.2846835 21.7720176,45.1675959 Z M15.0094274,56.6421777 C15.3592166,57.110528 15.7090057,56.6421777 16.1753913,56.6421777 C16.408584,56.6421777 16.6417768,56.7592653 16.7583732,57.110528 C17.2247587,56.4080026 16.6417768,56.0567399 16.408584,56.0567399 C16.5251804,55.9396523 16.9915659,55.7054772 17.2247587,56.1738275 C17.2247587,55.3542145 16.6417768,55.2371269 16.1753913,55.5883896 C16.0587949,55.2371269 16.2919876,55.0029518 16.6417768,55.0029518 C16.0587949,54.4175139 15.7090057,55.1200393 15.5924093,55.2371269 C15.3592166,55.5883896 14.5430419,55.0029518 14.1932527,54.6516891 C14.1932527,54.6516891 14.892831,53.9491636 14.892831,53.2466382 L14.892831,53.1295507 C15.0094274,53.1295507 15.0094274,53.2466382 15.1260238,53.2466382 C15.2426202,53.2466382 15.5924093,53.2466382 15.5924093,52.6612004 C15.475813,52.7782879 15.3592166,52.7782879 15.3592166,52.7782879 C14.7762347,52.7782879 13.6102708,50.9048868 12.2111142,50.9048868 C11.8613251,50.9048868 11.1617468,51.139062 10.8119576,51.6074122 C10.928554,51.7244998 11.0451504,51.958675 11.0451504,52.0757625 C10.928554,52.0757625 10.8119576,52.1928501 10.5787649,52.1928501 C11.2783432,52.4270252 12.5609034,53.0124631 12.9106925,53.2466382 C13.2604817,53.5979009 13.1438853,54.0662512 13.0272889,54.8858642 C12.7940962,55.5883896 12.444307,55.5883896 12.2111142,55.471302 C12.444307,55.7054772 12.6774998,55.8225648 12.7940962,55.8225648 C13.1438853,55.8225648 13.2604817,55.5883896 13.4936745,55.5883896 C13.8434636,55.5883896 14.5430419,56.0567399 14.5430419,56.4080026 C14.5430419,56.6421777 14.4264455,56.7592653 14.1932527,56.8763529 C14.3098491,57.110528 14.892831,57.110528 15.0094274,56.6421777 Z M30.7499391,57.110528 C30.5167463,56.9934404 30.40015,56.7592653 30.40015,56.5250902 C30.40015,56.1738275 31.0997283,55.7054772 31.4495174,55.7054772 C31.6827102,55.7054772 31.7993065,55.9396523 32.1490957,55.9396523 C32.3822885,55.9396523 32.6154812,55.8225648 32.7320776,55.5883896 C32.6154812,55.5883896 32.1490957,55.7054772 31.9159029,55.0029518 C31.6827102,54.1833388 31.6827102,53.5979009 32.0324993,53.3637258 C32.3822885,53.1295507 33.6648487,52.6612004 34.364427,52.3099377 C34.1312342,52.3099377 34.0146378,52.0757625 33.8980414,51.8415874 C33.8980414,51.7244998 33.8980414,51.4903247 34.1312342,51.3732371 C33.7814451,51.0219744 33.0818668,50.6707117 32.7320776,50.6707117 C31.332921,50.6707117 30.1669572,52.5441128 29.5839753,52.5441128 C29.4673789,52.5441128 29.4673789,52.5441128 29.3507825,52.4270252 C29.3507825,53.0124631 29.7005717,53.0124631 29.817168,53.0124631 C29.9337644,53.0124631 30.0503608,53.0124631 30.0503608,52.8953755 L30.0503608,53.0124631 C30.0503608,53.7149885 30.7499391,54.4175139 30.7499391,54.4175139 C30.40015,54.7687766 29.5839753,55.3542145 29.3507825,55.0029518 C29.2341861,54.8858642 28.884397,54.0662512 28.3014151,54.7687766 C28.6512042,54.7687766 28.884397,55.0029518 28.7678006,55.3542145 C28.3014151,55.0029518 27.7184332,55.0029518 27.7184332,55.9396523 C28.0682223,55.471302 28.5346078,55.8225648 28.5346078,55.8225648 C28.1848187,55.8225648 27.7184332,56.290915 28.1848187,56.8763529 C28.1848187,56.4080026 28.5346078,56.4080026 28.7678006,56.4080026 C29.2341861,56.4080026 29.5839753,56.8763529 29.9337644,56.4080026 C29.9337644,57.110528 30.5167463,57.110528 30.7499391,57.110528 Z M19.2068972,45.9872089 C19.2068972,46.1042965 18.9737044,45.9872089 18.9737044,45.9872089 C18.9737044,46.1042965 19.2068972,46.3384716 19.3234936,46.3384716 C19.44009,46.3384716 19.5566864,46.3384716 19.5566864,46.221384 C19.5566864,46.221384 20.372861,46.4555592 20.8392466,46.5726468 C20.7226502,46.8068219 20.6060538,47.040997 20.6060538,47.2751722 C20.2562647,47.040997 18.9737044,46.3384716 18.9737044,46.3384716 L18.5073189,46.9239095 C18.3907225,47.040997 18.1575298,46.8068219 18.1575298,46.6897343 L18.5073189,46.221384 C18.3907225,46.1042965 18.1575298,46.221384 18.0409334,46.221384 C18.0409334,46.1042965 18.2741261,45.8701213 18.6239153,45.9872089 C18.6239153,45.7530338 18.2741261,45.8701213 18.1575298,45.8701213 C18.2741261,45.7530338 18.5073189,45.5188586 18.8571081,45.7530338 L18.9737044,45.5188586 L18.7405117,45.1675959 L18.9737044,44.9334208 L19.2068972,45.1675959 L20.7226502,43.0600197 C20.7226502,43.0600197 21.0724393,42.9429321 21.1890357,42.9429321 C21.1890357,43.0600197 21.1890357,43.4112824 21.1890357,43.4112824 L19.6732827,45.5188586 L20.0230719,45.6359462 L19.7898791,45.8701213 L19.44009,45.6359462 L19.2068972,45.9872089 Z M24.5703308,45.6359462 C24.5703308,45.8701213 24.6869272,46.1042965 24.92012,45.9872089 C24.92012,46.221384 24.4537344,46.4555592 24.337138,46.1042965 C24.2205417,46.4555592 24.2205417,46.6897343 24.5703308,46.9239095 C24.337138,47.040997 24.1039453,47.040997 23.8707525,46.8068219 C23.6375598,47.040997 23.6375598,47.5093473 23.7541561,47.6264349 C23.7541561,47.6264349 22.9379815,48.0947852 22.3549995,47.7435225 C21.888614,47.5093473 21.5388249,47.2751722 20.9558429,47.2751722 C21.0724393,46.4555592 21.4222285,46.221384 22.2384032,46.1042965 C22.8213851,45.9872089 22.9379815,45.7530338 22.8213851,45.5188586 C22.5881923,45.5188586 22.2384032,45.6359462 22.2384032,45.6359462 C22.1218068,45.5188586 22.2384032,45.4017711 22.2384032,45.4017711 L22.2384032,45.1675959 C22.7047887,45.1675959 22.7047887,45.0505084 22.7047887,45.0505084 C22.8213851,44.5821581 22.3549995,44.5821581 22.0052104,44.8163332 C21.888614,44.6992456 21.888614,44.4650705 21.888614,44.4650705 L21.7720176,44.3479829 C21.7720176,44.2308954 22.2384032,43.9967202 22.3549995,43.8796327 C22.3549995,43.7625451 22.5881923,43.5283699 23.0545778,43.5283699 C23.1711742,43.4112824 23.0545778,42.8258445 22.9379815,42.708757 C22.9379815,42.708757 22.9379815,42.5916694 22.9379815,42.708757 C23.1711742,42.8258445 23.2877706,43.2941948 23.404367,43.2941948 L23.9873489,42.9429321 L24.1039453,43.6454575 C24.2205417,43.7625451 24.6869272,43.6454575 24.8035236,43.7625451 L24.8035236,43.8796327 C24.6869272,43.8796327 24.2205417,44.1138078 24.1039453,44.2308954 C24.8035236,44.8163332 24.5703308,45.4017711 24.5703308,45.6359462 Z" id="Shape" fill="#FFFFFF"></path>
            <g id="Group" transform="translate(54.000000, 33.000000)">
                <path d="M5.48076923,1.96923077 C6.45512821,1.96923077 7.06410256,2.09230769 7.55128205,2.33846154 L7.42948718,4.30769231 L7.06410256,4.30769231 L7.06410256,4.06153846 C6.82051282,3.2 6.45512821,2.83076923 5.35897436,2.83076923 C3.8974359,2.83076923 2.55769231,4.30769231 2.55769231,6.76923077 C2.55769231,9.47692308 3.8974359,10.5846154 5.23717949,10.5846154 C6.33333333,10.5846154 6.82051282,10.2153846 7.18589744,9.47692308 L7.30769231,9.10769231 L7.67307692,9.10769231 L7.55128205,11.0769231 C7.06410256,11.3230769 6.08974359,11.5692308 4.99358974,11.5692308 C2.92307692,11.5692308 1.09615385,9.96923077 1.09615385,7.01538462 C1.09615385,4.06153846 3.16666667,1.96923077 5.48076923,1.96923077 Z" id="Shape" fill="#000000"></path>
                <path d="M11.9358974,4.43076923 C13.5192308,4.43076923 14.3717949,5.41538462 14.3717949,7.13846154 C14.3717949,7.38461538 14.3717949,7.75384615 14.3717949,8.12307692 L10.1089744,8.12307692 C10.1089744,9.72307692 11.0833333,10.7076923 12.1794872,10.7076923 C12.9102564,10.7076923 13.6410256,10.4615385 14.25,10.0923077 C14.25,10.2153846 14.25,10.3384615 14.25,10.4615385 C14.25,11.0769231 13.275641,11.6923077 11.8141026,11.6923077 C10.2307692,11.6923077 8.89102564,10.4615385 8.89102564,8.36923077 C8.89102564,5.78461538 10.3525641,4.43076923 11.9358974,4.43076923 Z M13.275641,7.26153846 C13.275641,5.78461538 12.6666667,5.16923077 11.8141026,5.16923077 C11.0833333,5.16923077 10.2307692,6.15384615 10.2307692,7.26153846 L13.275641,7.26153846 Z" id="Shape" fill="#000000"></path>
                <path d="M15.5897436,11.2 C15.9551282,11.0769231 16.3205128,10.7076923 16.3205128,10.4615385 L16.3205128,5.53846154 L15.3461538,5.16923077 L15.3461538,4.8 C15.9551282,4.55384615 16.6858974,4.55384615 17.0512821,4.55384615 L17.4166667,4.55384615 L17.4166667,5.29230769 C17.9038462,4.8 18.7564103,4.43076923 19.4871795,4.43076923 C20.7051282,4.43076923 21.5576923,5.16923077 21.5576923,6.64615385 L21.5576923,10.7076923 L22.2884615,10.9538462 L22.2884615,11.2 C21.9230769,11.3230769 21.4358974,11.4461538 20.8269231,11.4461538 C20.5833333,11.4461538 20.2179487,11.4461538 19.8525641,11.3230769 L19.8525641,11.0769231 C20.2179487,10.9538462 20.3397436,10.5846154 20.3397436,10.0923077 L20.3397436,7.38461538 C20.3397436,5.90769231 19.7307692,5.41538462 18.8782051,5.41538462 C18.2692308,5.41538462 17.6602564,5.66153846 17.4166667,5.90769231 L17.4166667,10.8307692 L18.2692308,11.0769231 L18.2692308,11.3230769 C17.7820513,11.4461538 17.2948718,11.5692308 16.5641026,11.5692308 C16.1987179,11.5692308 15.8333333,11.5692308 15.4679487,11.4461538 L15.5897436,11.2 Z" id="Shape" fill="#000000"></path>
                <path d="M24.2371795,7.50769231 L24.2371795,5.53846154 L23.5064103,5.53846154 L23.5064103,5.04615385 L25.0897436,3.44615385 L25.5769231,3.44615385 L25.5769231,4.8 L27.525641,4.8 L27.4038462,5.53846154 L25.5769231,5.53846154 L25.5769231,7.38461538 C25.5769231,8 25.5769231,8.49230769 25.5769231,9.10769231 C25.5769231,10.3384615 25.9423077,10.7076923 26.4294872,10.7076923 C26.7948718,10.7076923 27.1602564,10.5846154 27.525641,10.3384615 L27.6474359,10.3384615 C27.6474359,11.2 27.0384615,11.5692308 26.0641026,11.5692308 C24.9679487,11.5692308 24.3589744,10.9538462 24.3589744,9.6 C24.2371795,8.86153846 24.2371795,8.12307692 24.2371795,7.50769231 Z" id="Shape" fill="#000000"></path>
                <path d="M28.1346154,11.2 C28.5,11.0769231 28.8653846,10.7076923 28.8653846,10.4615385 L28.8653846,5.53846154 L28.0128205,5.04615385 L28.0128205,4.67692308 C28.6217949,4.43076923 29.3525641,4.43076923 29.7179487,4.43076923 L30.0833333,4.43076923 L30.0833333,5.41538462 L30.4487179,4.92307692 C30.8141026,4.55384615 31.1794872,4.30769231 31.6666667,4.30769231 C32.1538462,4.30769231 32.3974359,4.55384615 32.3974359,4.92307692 C32.3974359,5.16923077 32.275641,5.53846154 32.1538462,5.78461538 C31.9102564,5.53846154 31.5448718,5.41538462 31.3012821,5.41538462 C30.8141026,5.41538462 30.4487179,5.66153846 30.0833333,6.03076923 L30.0833333,10.7076923 L31.0576923,10.9538462 L31.0576923,11.2 C30.5705128,11.3230769 30.0833333,11.4461538 29.2307692,11.4461538 C28.8653846,11.4461538 28.3782051,11.4461538 28.1346154,11.3230769 L28.1346154,11.2 Z" id="Shape" fill="#000000"></path>
                <path d="M36.5384615,7.63076923 L36.5384615,7.26153846 C36.5384615,5.66153846 36.1730769,5.41538462 35.3205128,5.41538462 C34.5897436,5.41538462 33.7371795,5.78461538 33.1282051,6.4 C33.1282051,6.27692308 33.1282051,6.15384615 33.1282051,5.90769231 C33.1282051,4.92307692 33.8589744,4.43076923 35.4423077,4.43076923 C36.9038462,4.43076923 37.7564103,5.16923077 37.7564103,6.4 C37.7564103,6.76923077 37.7564103,7.38461538 37.7564103,7.87692308 L37.7564103,10.2153846 C37.8782051,10.4615385 38.1217949,10.7076923 38.3653846,10.9538462 C38.1217949,11.2 37.7564103,11.4461538 37.3910256,11.6923077 C37.1474359,11.5692308 36.9038462,11.3230769 36.7820513,10.9538462 C36.4166667,11.3230769 35.5641026,11.6923077 34.8333333,11.6923077 C33.7371795,11.6923077 33.0064103,10.9538462 33.0064103,10.0923077 C32.8846154,8.73846154 34.224359,7.63076923 36.5384615,7.63076923 Z M35.1987179,10.7076923 C35.6858974,10.7076923 36.1730769,10.5846154 36.5384615,10.3384615 L36.5384615,8.24615385 C34.9551282,8.24615385 33.9807692,8.98461538 33.9807692,9.72307692 C34.1025641,10.3384615 34.4679487,10.7076923 35.1987179,10.7076923 Z" id="Shape" fill="#000000"></path>
                <path d="M43.1153846,7.63076923 L43.1153846,7.26153846 C43.1153846,5.66153846 42.75,5.41538462 41.8974359,5.41538462 C41.1666667,5.41538462 40.3141026,5.78461538 39.7051282,6.4 C39.7051282,6.27692308 39.7051282,6.15384615 39.7051282,5.90769231 C39.7051282,4.92307692 40.4358974,4.43076923 42.0192308,4.43076923 C43.4807692,4.43076923 44.3333333,5.16923077 44.3333333,6.4 C44.3333333,6.76923077 44.3333333,7.38461538 44.3333333,7.87692308 L44.3333333,10.2153846 C44.4551282,10.4615385 44.6987179,10.7076923 44.9423077,10.9538462 C44.6987179,11.2 44.3333333,11.4461538 43.9679487,11.6923077 C43.724359,11.5692308 43.4807692,11.3230769 43.3589744,10.9538462 C42.9935897,11.3230769 42.1410256,11.6923077 41.4102564,11.6923077 C40.3141026,11.6923077 39.5833333,10.9538462 39.5833333,10.0923077 C39.3397436,8.73846154 40.8012821,7.63076923 43.1153846,7.63076923 Z M41.775641,10.7076923 C42.2628205,10.7076923 42.75,10.5846154 43.1153846,10.3384615 L43.1153846,8.24615385 C41.5320513,8.24615385 40.5576923,8.98461538 40.5576923,9.72307692 C40.5576923,10.3384615 41.0448718,10.7076923 41.775641,10.7076923 Z" id="Shape" fill="#000000"></path>
                <path d="M46.1602564,11.2 C46.525641,11.0769231 46.8910256,10.7076923 46.8910256,10.4615385 L46.8910256,2.09230769 L45.9166667,1.72307692 L45.9166667,1.23076923 C46.525641,0.984615385 47.2564103,0.984615385 47.6217949,0.984615385 L48.1089744,0.984615385 L47.9871795,1.84615385 L47.9871795,10.8307692 L48.8397436,11.0769231 L48.8397436,11.3230769 C48.3525641,11.4461538 47.8653846,11.5692308 47.1346154,11.5692308 C46.7692308,11.5692308 46.4038462,11.5692308 46.0384615,11.4461538 L46.0384615,11.2 L46.1602564,11.2 Z" id="Shape" fill="#000000"></path>
                <path d="M53.8333333,10.3384615 L53.8333333,2.83076923 L52.9807692,2.58461538 L52.9807692,2.21538462 C53.5897436,2.09230769 54.0769231,1.96923077 54.6858974,1.96923077 C55.1730769,1.96923077 55.5384615,1.96923077 56.025641,2.09230769 L56.025641,2.46153846 C55.4166667,2.58461538 55.1730769,2.83076923 55.1730769,3.56923077 L55.1730769,10.0923077 C55.1730769,12.1846154 54.3205128,13.1692308 53.4679487,13.1692308 C53.224359,13.1692308 52.9807692,13.1692308 52.7371795,13.0461538 L52.7371795,12.8 C53.3461538,12.5538462 53.8333333,11.5692308 53.8333333,10.3384615 Z" id="Shape" fill="#000000"></path>
                <path d="M57.6089744,5.53846154 L56.7564103,5.16923077 L56.7564103,4.92307692 C57.3653846,4.67692308 57.974359,4.67692308 58.3397436,4.67692308 L58.8269231,4.67692308 L58.7051282,5.53846154 L58.7051282,8.61538462 C58.7051282,10.0923077 59.1923077,10.5846154 60.0448718,10.5846154 C60.5320513,10.5846154 61.1410256,10.3384615 61.5064103,10.2153846 L61.5064103,5.53846154 L60.6538462,5.16923077 L60.6538462,4.92307692 C61.2628205,4.67692308 61.8717949,4.67692308 62.2371795,4.67692308 L62.724359,4.67692308 L62.6025641,5.53846154 L62.6025641,10.4615385 C62.724359,10.7076923 62.9679487,10.9538462 63.0897436,11.2 C62.8461538,11.4461538 62.4807692,11.6923077 62.1153846,11.9384615 C61.8717949,11.6923077 61.6282051,11.4461538 61.3846154,11.0769231 C61.0192308,11.4461538 60.1666667,11.8153846 59.3141026,11.8153846 C58.0961538,11.8153846 57.3653846,11.0769231 57.3653846,9.47692308 L57.3653846,5.53846154 L57.6089744,5.53846154 Z" id="Shape" fill="#000000"></path>
                <path d="M64.5512821,9.84615385 C65.1602564,10.4615385 65.7692308,10.7076923 66.6217949,10.7076923 C67.474359,10.7076923 67.8397436,10.3384615 67.8397436,9.84615385 C67.8397436,9.35384615 67.5961538,8.98461538 66.6217949,8.61538462 L65.8910256,8.36923077 C65.0384615,8 64.5512821,7.38461538 64.5512821,6.52307692 C64.5512821,5.41538462 65.525641,4.43076923 67.1089744,4.43076923 C68.2051282,4.43076923 68.6923077,4.8 68.6923077,5.29230769 C68.6923077,5.53846154 68.6923077,5.66153846 68.5705128,5.90769231 C68.0833333,5.53846154 67.474359,5.41538462 66.9871795,5.41538462 C66.0128205,5.41538462 65.6474359,5.78461538 65.6474359,6.27692308 C65.6474359,6.76923077 65.8910256,7.13846154 66.7435897,7.38461538 L67.474359,7.63076923 C68.4487179,8 68.9358974,8.61538462 68.9358974,9.47692308 C68.9358974,10.5846154 67.8397436,11.5692308 66.2564103,11.5692308 C65.0384615,11.5692308 64.4294872,11.2 64.4294872,10.3384615 C64.4294872,10.2153846 64.5512821,9.96923077 64.5512821,9.84615385 Z" id="Shape" fill="#000000"></path>
                <path d="M70.7628205,7.50769231 L70.7628205,5.53846154 L70.0320513,5.53846154 L70.0320513,5.04615385 L71.6153846,3.44615385 L72.1025641,3.44615385 L72.1025641,4.8 L74.0512821,4.8 L73.9294872,5.53846154 L71.8589744,5.53846154 L71.8589744,7.38461538 C71.8589744,8 71.8589744,8.49230769 71.8589744,9.10769231 C71.8589744,10.3384615 72.224359,10.7076923 72.7115385,10.7076923 C73.0769231,10.7076923 73.4423077,10.5846154 73.8076923,10.3384615 L73.9294872,10.3384615 C73.9294872,11.2 73.3205128,11.5692308 72.3461538,11.5692308 C71.25,11.5692308 70.6410256,10.9538462 70.6410256,9.6 C70.6410256,8.86153846 70.6410256,8.12307692 70.7628205,7.50769231 Z" id="Shape" fill="#000000"></path>
                <path d="M74.6602564,11.2 C75.025641,11.0769231 75.3910256,10.7076923 75.3910256,10.4615385 L75.3910256,5.53846154 L74.4166667,5.16923077 L74.4166667,4.92307692 C75.025641,4.67692308 75.7564103,4.67692308 76.1217949,4.67692308 L76.6089744,4.67692308 L76.4871795,5.41538462 L76.4871795,10.9538462 L77.3397436,11.2 L77.3397436,11.4461538 C76.8525641,11.5692308 76.3653846,11.6923077 75.6346154,11.6923077 C75.2692308,11.6923077 74.9038462,11.6923077 74.5384615,11.5692308 L74.5384615,11.2 L74.6602564,11.2 Z M75.2692308,2.33846154 C75.2692308,1.84615385 75.6346154,1.47692308 76.1217949,1.47692308 C76.4871795,1.47692308 76.8525641,1.72307692 76.8525641,2.21538462 C76.8525641,2.70769231 76.4871795,3.07692308 76,3.07692308 C75.5128205,3.2 75.2692308,2.83076923 75.2692308,2.33846154 Z" id="Shape" fill="#000000"></path>
                <path d="M79.2884615,7.50769231 L79.2884615,5.53846154 L78.5576923,5.53846154 L78.5576923,5.04615385 L80.1410256,3.44615385 L80.6282051,3.44615385 L80.6282051,4.8 L82.5769231,4.8 L82.4551282,5.53846154 L80.3846154,5.53846154 L80.3846154,7.38461538 C80.3846154,8 80.3846154,8.49230769 80.3846154,9.10769231 C80.3846154,10.3384615 80.75,10.7076923 81.2371795,10.7076923 C81.6025641,10.7076923 81.9679487,10.5846154 82.3333333,10.3384615 L82.4551282,10.3384615 C82.4551282,11.2 81.8461538,11.5692308 80.8717949,11.5692308 C79.775641,11.5692308 79.1666667,10.9538462 79.1666667,9.6 C79.1666667,8.86153846 79.2884615,8.12307692 79.2884615,7.50769231 Z" id="Shape" fill="#000000"></path>
                <path d="M83.1858974,11.2 C83.5512821,11.0769231 83.9166667,10.7076923 83.9166667,10.4615385 L83.9166667,5.53846154 L82.9423077,5.16923077 L82.9423077,4.92307692 C83.5512821,4.67692308 84.2820513,4.67692308 84.6474359,4.67692308 L85.1346154,4.67692308 L85.0128205,5.41538462 L85.0128205,10.9538462 L85.8653846,11.2 L85.8653846,11.4461538 C85.3782051,11.5692308 84.8910256,11.6923077 84.1602564,11.6923077 C83.7948718,11.6923077 83.4294872,11.6923077 83.0641026,11.5692308 L83.0641026,11.2 L83.1858974,11.2 Z M83.7948718,2.33846154 C83.7948718,1.84615385 84.1602564,1.47692308 84.6474359,1.47692308 C85.0128205,1.47692308 85.3782051,1.72307692 85.3782051,2.21538462 C85.3782051,2.70769231 85.0128205,3.07692308 84.525641,3.07692308 C84.1602564,3.2 83.7948718,2.83076923 83.7948718,2.33846154 Z" id="Shape" fill="#000000"></path>
                <path d="M90.0064103,4.43076923 C91.5897436,4.43076923 92.4423077,5.41538462 92.4423077,7.13846154 C92.4423077,7.38461538 92.4423077,7.75384615 92.4423077,8.12307692 L88.1794872,8.12307692 C88.1794872,9.72307692 89.1538462,10.7076923 90.25,10.7076923 C90.9807692,10.7076923 91.7115385,10.4615385 92.3205128,10.0923077 C92.3205128,10.2153846 92.3205128,10.3384615 92.3205128,10.4615385 C92.3205128,11.0769231 91.3461538,11.6923077 89.8846154,11.6923077 C88.3012821,11.6923077 86.9615385,10.4615385 86.9615385,8.36923077 C87.0833333,5.78461538 88.5448718,4.43076923 90.0064103,4.43076923 Z M91.3461538,7.26153846 C91.3461538,5.78461538 90.7371795,5.16923077 89.8846154,5.16923077 C89.1538462,5.16923077 88.3012821,6.15384615 88.3012821,7.26153846 L91.3461538,7.26153846 Z" id="Shape" fill="#000000"></path>
                <path d="M96.5833333,4.43076923 C98.1666667,4.43076923 99.0192308,5.41538462 99.0192308,7.13846154 C99.0192308,7.38461538 99.0192308,7.75384615 99.0192308,8.12307692 L94.7564103,8.12307692 C94.7564103,9.72307692 95.7307692,10.7076923 96.8269231,10.7076923 C97.5576923,10.7076923 98.2884615,10.4615385 98.8974359,10.0923077 C98.8974359,10.2153846 98.8974359,10.3384615 98.8974359,10.4615385 C98.8974359,11.0769231 97.9230769,11.6923077 96.4615385,11.6923077 C94.8782051,11.6923077 93.5384615,10.4615385 93.5384615,8.36923077 C93.6602564,5.78461538 95.1217949,4.43076923 96.5833333,4.43076923 Z M97.9230769,7.26153846 C97.9230769,5.78461538 97.3141026,5.16923077 96.4615385,5.16923077 C95.7307692,5.16923077 94.8782051,6.15384615 94.8782051,7.26153846 L97.9230769,7.26153846 Z" id="Shape" fill="#000000"></path>
                <path d="M100.358974,11.2 C100.724359,11.0769231 101.089744,10.7076923 101.089744,10.4615385 L101.089744,2.09230769 L100.115385,1.72307692 L100.115385,1.23076923 C100.724359,0.984615385 101.455128,0.984615385 101.820513,0.984615385 L102.307692,0.984615385 L102.185897,1.84615385 L102.185897,10.8307692 L103.038462,11.0769231 L103.038462,11.3230769 C102.551282,11.4461538 102.064103,11.5692308 101.333333,11.5692308 C100.967949,11.5692308 100.602564,11.5692308 100.237179,11.4461538 L100.237179,11.2 L100.358974,11.2 Z" id="Shape" fill="#000000"></path>
                <path d="M107.179487,11.2 C107.666667,11.0769231 108.032051,10.8307692 108.032051,10.0923077 L108.032051,2.95384615 L107.179487,2.70769231 L107.179487,2.33846154 C107.788462,2.21538462 108.275641,2.09230769 108.884615,2.09230769 C109.371795,2.09230769 109.858974,2.09230769 110.224359,2.21538462 L110.224359,2.46153846 C109.615385,2.58461538 109.371795,2.95384615 109.371795,3.44615385 L109.371795,10.7076923 L110.224359,10.9538462 L110.224359,11.3230769 C109.737179,11.4461538 109.25,11.5692308 108.519231,11.5692308 C107.910256,11.5692308 107.544872,11.5692308 107.179487,11.4461538 L107.179487,11.2 Z" id="Shape" fill="#000000"></path>
                <path d="M111.564103,11.2 C111.929487,11.0769231 112.294872,10.7076923 112.294872,10.4615385 L112.294872,5.53846154 L111.320513,5.16923077 L111.320513,4.8 C111.929487,4.55384615 112.660256,4.55384615 113.025641,4.55384615 L113.391026,4.55384615 L113.391026,5.29230769 C113.878205,4.8 114.730769,4.43076923 115.461538,4.43076923 C116.679487,4.43076923 117.532051,5.16923077 117.532051,6.64615385 L117.532051,10.7076923 L118.262821,10.9538462 L118.262821,11.2 C117.897436,11.3230769 117.410256,11.4461538 116.801282,11.4461538 C116.557692,11.4461538 116.192308,11.4461538 115.826923,11.3230769 L115.826923,11.0769231 C116.192308,10.9538462 116.314103,10.5846154 116.314103,10.0923077 L116.314103,7.38461538 C116.314103,5.90769231 115.705128,5.41538462 114.852564,5.41538462 C114.24359,5.41538462 113.634615,5.66153846 113.391026,5.90769231 L113.391026,10.8307692 L114.24359,11.0769231 L114.24359,11.3230769 C113.75641,11.4461538 113.269231,11.5692308 112.538462,11.5692308 C112.173077,11.5692308 111.807692,11.5692308 111.442308,11.4461538 L111.564103,11.2 Z" id="Shape" fill="#000000"></path>
                <path d="M122.769231,4.43076923 C123.987179,4.43076923 124.352564,4.8 124.352564,5.29230769 C124.352564,5.53846154 124.230769,5.78461538 124.230769,6.03076923 C123.74359,5.53846154 123.134615,5.41538462 122.525641,5.41538462 C121.551282,5.41538462 120.698718,6.4 120.698718,8.12307692 C120.698718,9.84615385 121.551282,10.7076923 122.769231,10.7076923 C123.378205,10.7076923 123.987179,10.4615385 124.352564,10.0923077 C124.352564,10.2153846 124.474359,10.3384615 124.474359,10.4615385 C124.474359,11.2 123.74359,11.6923077 122.403846,11.6923077 C120.820513,11.6923077 119.480769,10.3384615 119.480769,8.36923077 C119.480769,5.90769231 120.942308,4.43076923 122.769231,4.43076923 Z" id="Shape" fill="#000000"></path>
                <path d="M128.980769,7.63076923 L128.980769,7.26153846 C128.980769,5.66153846 128.615385,5.41538462 127.762821,5.41538462 C127.032051,5.41538462 126.179487,5.78461538 125.570513,6.4 C125.570513,6.27692308 125.570513,6.15384615 125.570513,5.90769231 C125.570513,4.92307692 126.301282,4.43076923 127.884615,4.43076923 C129.346154,4.43076923 130.198718,5.16923077 130.198718,6.4 C130.198718,6.76923077 130.198718,7.38461538 130.198718,7.87692308 L130.198718,10.2153846 C130.320513,10.4615385 130.564103,10.7076923 130.807692,10.9538462 C130.564103,11.2 130.198718,11.4461538 129.833333,11.6923077 C129.589744,11.5692308 129.346154,11.3230769 129.224359,10.9538462 C128.858974,11.3230769 128.00641,11.6923077 127.275641,11.6923077 C126.179487,11.6923077 125.448718,10.9538462 125.448718,10.0923077 C125.205128,8.73846154 126.544872,7.63076923 128.980769,7.63076923 Z M127.641026,10.7076923 C128.128205,10.7076923 128.615385,10.5846154 128.980769,10.3384615 L128.980769,8.24615385 C127.397436,8.24615385 126.423077,8.98461538 126.423077,9.72307692 C126.423077,10.3384615 126.788462,10.7076923 127.641026,10.7076923 Z" id="Shape" fill="#000000"></path>
                <path d="M131.903846,9.84615385 C132.512821,10.4615385 133.121795,10.7076923 133.974359,10.7076923 C134.826923,10.7076923 135.192308,10.3384615 135.192308,9.84615385 C135.192308,9.35384615 134.948718,8.98461538 133.974359,8.61538462 L133.24359,8.36923077 C132.391026,8 131.903846,7.38461538 131.903846,6.52307692 C131.903846,5.41538462 132.878205,4.43076923 134.461538,4.43076923 C135.557692,4.43076923 136.044872,4.8 136.044872,5.29230769 C136.044872,5.53846154 136.044872,5.66153846 135.923077,5.90769231 C135.435897,5.53846154 134.826923,5.41538462 134.339744,5.41538462 C133.365385,5.41538462 133,5.78461538 133,6.27692308 C133,6.76923077 133.24359,7.13846154 134.096154,7.38461538 L134.826923,7.63076923 C135.801282,8 136.288462,8.61538462 136.288462,9.47692308 C136.288462,10.5846154 135.192308,11.5692308 133.608974,11.5692308 C132.391026,11.5692308 131.782051,11.2 131.782051,10.3384615 C131.782051,10.2153846 131.782051,9.96923077 131.903846,9.84615385 Z" id="Shape" fill="#000000"></path>
                <path d="M137.262821,9.84615385 C137.871795,10.4615385 138.480769,10.7076923 139.333333,10.7076923 C140.185897,10.7076923 140.551282,10.3384615 140.551282,9.84615385 C140.551282,9.35384615 140.307692,8.98461538 139.333333,8.61538462 L138.602564,8.36923077 C137.75,8 137.262821,7.38461538 137.262821,6.52307692 C137.262821,5.41538462 138.237179,4.43076923 139.820513,4.43076923 C140.916667,4.43076923 141.403846,4.8 141.403846,5.29230769 C141.403846,5.53846154 141.403846,5.66153846 141.282051,5.90769231 C140.794872,5.53846154 140.185897,5.41538462 139.698718,5.41538462 C138.724359,5.41538462 138.358974,5.78461538 138.358974,6.27692308 C138.358974,6.76923077 138.602564,7.13846154 139.455128,7.38461538 L140.185897,7.63076923 C141.160256,8 141.647436,8.61538462 141.647436,9.47692308 C141.647436,10.5846154 140.551282,11.5692308 138.967949,11.5692308 C137.75,11.5692308 137.141026,11.2 137.141026,10.3384615 C137.141026,10.2153846 137.141026,9.96923077 137.262821,9.84615385 Z" id="Shape" fill="#000000"></path>
                <path d="M146.032051,4.43076923 C147.858974,4.43076923 149.198718,5.78461538 149.198718,7.75384615 C149.198718,10.0923077 147.49359,11.6923077 145.788462,11.6923077 C144.083333,11.6923077 142.621795,10.4615385 142.621795,8.36923077 C142.621795,5.90769231 144.205128,4.43076923 146.032051,4.43076923 Z M145.910256,10.8307692 C146.884615,10.8307692 147.858974,9.84615385 147.858974,7.87692308 C147.858974,6.15384615 147.00641,5.29230769 145.910256,5.29230769 C144.935897,5.29230769 143.961538,6.27692308 143.961538,8.24615385 C143.961538,9.84615385 144.814103,10.8307692 145.910256,10.8307692 Z" id="Shape" fill="#000000"></path>
                <path d="M151.147436,9.96923077 L151.147436,1.96923077 L150.173077,1.6 L150.173077,1.23076923 C150.782051,0.984615385 151.391026,0.984615385 151.878205,0.984615385 L152.365385,0.984615385 L152.24359,1.84615385 L152.24359,5.16923077 C152.730769,4.8 153.339744,4.55384615 154.070513,4.55384615 C155.532051,4.55384615 156.628205,5.66153846 156.628205,7.63076923 C156.628205,10.3384615 154.923077,11.6923077 152.974359,11.6923077 C152.365385,11.6923077 151.512821,11.5692308 150.903846,11.4461538 C151.147436,10.9538462 151.147436,10.3384615 151.147436,9.96923077 Z M153.096154,10.7076923 C154.435897,10.7076923 155.532051,9.84615385 155.532051,7.75384615 C155.532051,6.27692308 154.679487,5.41538462 153.705128,5.41538462 C153.096154,5.41538462 152.730769,5.53846154 152.365385,5.78461538 L152.365385,10.7076923 C152.608974,10.7076923 152.852564,10.7076923 153.096154,10.7076923 Z" id="Shape" fill="#000000"></path>
                <path d="M158.698718,5.53846154 L157.846154,5.16923077 L157.846154,4.92307692 C158.455128,4.67692308 159.064103,4.67692308 159.429487,4.67692308 L159.916667,4.67692308 L159.794872,5.53846154 L159.794872,8.61538462 C159.794872,10.0923077 160.282051,10.5846154 161.134615,10.5846154 C161.621795,10.5846154 162.230769,10.3384615 162.596154,10.2153846 L162.596154,5.53846154 L161.74359,5.16923077 L161.74359,4.92307692 C162.352564,4.67692308 162.961538,4.67692308 163.326923,4.67692308 L163.814103,4.67692308 L163.692308,5.53846154 L163.692308,10.4615385 C163.814103,10.7076923 164.057692,10.9538462 164.179487,11.2 C163.935897,11.4461538 163.570513,11.6923077 163.205128,11.9384615 C162.961538,11.6923077 162.717949,11.4461538 162.474359,11.0769231 C162.108974,11.4461538 161.25641,11.8153846 160.403846,11.8153846 C159.185897,11.8153846 158.455128,11.0769231 158.455128,9.47692308 L158.455128,5.53846154 L158.698718,5.53846154 Z" id="Shape" fill="#000000"></path>
                <path d="M165.762821,11.2 C166.128205,11.0769231 166.49359,10.7076923 166.49359,10.4615385 L166.49359,5.53846154 L165.519231,5.16923077 L165.519231,4.8 C166.128205,4.55384615 166.858974,4.55384615 167.224359,4.55384615 L167.589744,4.55384615 L167.589744,5.53846154 L167.955128,5.04615385 C168.320513,4.67692308 168.685897,4.43076923 169.173077,4.43076923 C169.660256,4.43076923 169.903846,4.67692308 169.903846,5.04615385 C169.903846,5.29230769 169.782051,5.66153846 169.660256,5.90769231 C169.416667,5.66153846 169.051282,5.53846154 168.807692,5.53846154 C168.320513,5.53846154 167.955128,5.78461538 167.589744,6.15384615 L167.589744,10.8307692 L168.564103,11.0769231 L168.564103,11.3230769 C168.076923,11.4461538 167.589744,11.5692308 166.737179,11.5692308 C166.371795,11.5692308 165.884615,11.5692308 165.641026,11.4461538 L165.762821,11.2 Z" id="Shape" fill="#000000"></path>
                <path d="M173.557692,4.43076923 C175.141026,4.43076923 175.99359,5.41538462 175.99359,7.13846154 C175.99359,7.38461538 175.99359,7.75384615 175.99359,8.12307692 L171.730769,8.12307692 C171.730769,9.72307692 172.705128,10.7076923 173.801282,10.7076923 C174.532051,10.7076923 175.262821,10.4615385 175.871795,10.0923077 C175.871795,10.2153846 175.871795,10.3384615 175.871795,10.4615385 C175.871795,11.0769231 174.897436,11.6923077 173.435897,11.6923077 C171.852564,11.6923077 170.512821,10.4615385 170.512821,8.36923077 C170.634615,5.78461538 172.096154,4.43076923 173.557692,4.43076923 Z M174.897436,7.26153846 C174.897436,5.78461538 174.288462,5.16923077 173.435897,5.16923077 C172.705128,5.16923077 171.852564,6.15384615 171.852564,7.26153846 L174.897436,7.26153846 Z" id="Shape" fill="#000000"></path>
                <path d="M180.865385,7.63076923 L180.865385,7.26153846 C180.865385,5.66153846 180.5,5.41538462 179.647436,5.41538462 C178.916667,5.41538462 178.064103,5.78461538 177.455128,6.4 C177.455128,6.27692308 177.455128,6.15384615 177.455128,5.90769231 C177.455128,4.92307692 178.185897,4.43076923 179.769231,4.43076923 C181.230769,4.43076923 182.083333,5.16923077 182.083333,6.4 C182.083333,6.76923077 182.083333,7.38461538 182.083333,7.87692308 L182.083333,10.2153846 C182.205128,10.4615385 182.448718,10.7076923 182.692308,10.9538462 C182.448718,11.2 182.083333,11.4461538 181.717949,11.6923077 C181.474359,11.5692308 181.230769,11.3230769 181.108974,10.9538462 C180.74359,11.3230769 179.891026,11.6923077 179.160256,11.6923077 C178.064103,11.6923077 177.333333,10.9538462 177.333333,10.0923077 C177.089744,8.73846154 178.429487,7.63076923 180.865385,7.63076923 Z M179.403846,10.7076923 C179.891026,10.7076923 180.378205,10.5846154 180.74359,10.3384615 L180.74359,8.24615385 C179.160256,8.24615385 178.185897,8.98461538 178.185897,9.72307692 C178.307692,10.3384615 178.673077,10.7076923 179.403846,10.7076923 Z" id="Shape" fill="#000000"></path>
                <path d="M184.397436,5.53846154 L183.544872,5.16923077 L183.544872,4.92307692 C184.153846,4.67692308 184.762821,4.67692308 185.128205,4.67692308 L185.615385,4.67692308 L185.49359,5.53846154 L185.49359,8.61538462 C185.49359,10.0923077 185.980769,10.5846154 186.833333,10.5846154 C187.320513,10.5846154 187.929487,10.3384615 188.294872,10.2153846 L188.294872,5.53846154 L187.442308,5.16923077 L187.442308,4.92307692 C188.051282,4.67692308 188.660256,4.67692308 189.025641,4.67692308 L189.512821,4.67692308 L189.391026,5.53846154 L189.391026,10.4615385 C189.512821,10.7076923 189.75641,10.9538462 189.878205,11.2 C189.634615,11.4461538 189.269231,11.6923077 188.903846,11.9384615 C188.660256,11.6923077 188.416667,11.4461538 188.173077,11.0769231 C187.807692,11.4461538 186.955128,11.8153846 186.102564,11.8153846 C184.884615,11.8153846 184.153846,11.0769231 184.153846,9.47692308 L184.153846,5.53846154 L184.397436,5.53846154 Z" id="Shape" fill="#000000"></path>
                <path d="M0.487179487,27.5692308 C0.730769231,27.4461538 0.974358974,27.3230769 0.974358974,27.0769231 L2.80128205,19.3230769 L2.07051282,19.2 L2.07051282,18.8307692 C2.43589744,18.7076923 3.16666667,18.7076923 3.53205128,18.7076923 L4.01923077,18.7076923 L5.23717949,25.6 L7.55128205,18.7076923 L7.91666667,18.7076923 C8.28205128,18.7076923 8.89102564,18.7076923 9.25641026,18.8307692 L9.25641026,19.2 L8.52564103,19.3230769 L8.89102564,27.3230769 L9.62179487,27.5692308 L9.62179487,27.8153846 C9.13461538,27.9384615 8.89102564,28.0615385 8.40384615,28.0615385 C7.79487179,28.0615385 7.42948718,28.0615385 7.18589744,27.9384615 L7.18589744,27.6923077 C7.42948718,27.5692308 7.67307692,27.4461538 7.67307692,26.9538462 L7.55128205,20.5538462 L4.99358974,28.1846154 L4.50641026,28.1846154 L3.04487179,20.5538462 L1.70512821,27.4461538 L2.55769231,27.6923077 L2.55769231,27.9384615 C2.19230769,28.0615385 1.82692308,28.1846154 1.33974359,28.1846154 C0.974358974,28.1846154 0.608974359,28.1846154 0.365384615,28.0615385 L0.487179487,27.5692308 Z" id="Shape" fill="#1D1D1B"></path>
                <path d="M11.0833333,25.4769231 L11.5705128,22.5230769 L11.6923077,21.6615385 L10.8397436,21.4153846 L10.8397436,21.1692308 C11.3269231,21.0461538 11.8141026,20.9230769 12.3012821,20.9230769 C12.5448718,20.9230769 12.7884615,20.9230769 12.9102564,21.0461538 L12.1794872,25.2307692 C12.1794872,25.7230769 12.0576923,26.4615385 12.0576923,26.8307692 C12.0576923,27.3230769 12.1794872,27.5692308 12.6666667,27.6923077 L12.6666667,27.9384615 C12.4230769,28.0615385 12.0576923,28.1846154 11.5705128,28.1846154 C11.0833333,28.1846154 10.8397436,27.9384615 10.8397436,27.5692308 C10.8397436,26.9538462 10.9615385,25.9692308 11.0833333,25.4769231 Z M11.6923077,18.7076923 C11.6923077,18.2153846 12.0576923,17.8461538 12.5448718,17.8461538 C12.9102564,17.8461538 13.1538462,18.0923077 13.1538462,18.5846154 C13.1538462,19.0769231 12.7884615,19.4461538 12.3012821,19.4461538 C12.0576923,19.4461538 11.6923077,19.2 11.6923077,18.7076923 Z" id="Shape" fill="#1D1D1B"></path>
                <path d="M14.7371795,21.6615385 L13.8846154,21.4153846 L13.8846154,21.1692308 C14.3717949,21.0461538 14.7371795,20.9230769 15.3461538,20.9230769 C15.5897436,20.9230769 15.7115385,20.9230769 15.9551282,21.0461538 L15.4679487,23.2615385 C16.0769231,21.7846154 17.0512821,20.9230769 18.025641,20.9230769 C18.6346154,20.9230769 19.1217949,21.4153846 19.1217949,22.2769231 C19.1217949,22.7692308 19,23.5076923 18.8782051,24.1230769 L18.6346154,25.7230769 C18.6346154,26.0923077 18.5128205,26.5846154 18.5128205,26.9538462 C18.5128205,27.4461538 18.7564103,27.5692308 19.2435897,27.6923077 L19.2435897,27.9384615 C18.8782051,28.0615385 18.5128205,28.1846154 18.1474359,28.1846154 C17.6602564,28.1846154 17.4166667,27.9384615 17.4166667,27.5692308 C17.4166667,27.2 17.5384615,26.4615385 17.5384615,25.9692308 L17.7820513,24.2461538 C17.9038462,23.7538462 17.9038462,23.1384615 17.9038462,22.7692308 C17.9038462,22.1538462 17.6602564,21.9076923 17.2948718,21.9076923 C16.4423077,21.9076923 15.3461538,23.5076923 15.224359,25.4769231 L15.1025641,27.9384615 L13.8846154,27.9384615 L14.7371795,21.6615385 Z" id="Shape" fill="#1D1D1B"></path>
                <path d="M20.7051282,25.4769231 L21.1923077,22.5230769 L21.3141026,21.6615385 L20.4615385,21.4153846 L20.4615385,21.1692308 C20.9487179,21.0461538 21.4358974,20.9230769 21.9230769,20.9230769 C22.1666667,20.9230769 22.4102564,20.9230769 22.5320513,21.0461538 L21.9230769,25.3538462 C21.9230769,25.8461538 21.8012821,26.5846154 21.8012821,26.9538462 C21.8012821,27.4461538 21.9230769,27.6923077 22.4102564,27.8153846 L22.4102564,28.0615385 C22.1666667,28.1846154 21.8012821,28.3076923 21.3141026,28.3076923 C20.8269231,28.3076923 20.5833333,28.0615385 20.5833333,27.6923077 C20.5833333,26.9538462 20.7051282,25.9692308 20.7051282,25.4769231 Z M21.4358974,18.7076923 C21.4358974,18.2153846 21.8012821,17.8461538 22.2884615,17.8461538 C22.6538462,17.8461538 22.8974359,18.0923077 22.8974359,18.5846154 C22.8974359,19.0769231 22.5320513,19.4461538 22.0448718,19.4461538 C21.6794872,19.4461538 21.4358974,19.2 21.4358974,18.7076923 Z" id="Shape" fill="#1D1D1B"></path>
                <path d="M23.1410256,26.7076923 C23.5064103,27.0769231 23.9935897,27.3230769 24.6025641,27.3230769 C25.3333333,27.3230769 25.8205128,26.9538462 25.8205128,26.3384615 C25.8205128,25.8461538 25.5769231,25.6 24.9679487,24.8615385 L24.4807692,24.3692308 C23.8717949,23.7538462 23.6282051,23.3846154 23.6282051,22.7692308 C23.6282051,21.7846154 24.4807692,20.8 25.8205128,20.8 C26.9166667,20.8 27.4038462,21.1692308 27.4038462,21.5384615 C27.4038462,21.7846154 27.2820513,22.1538462 27.1602564,22.2769231 C26.7948718,21.7846154 26.1858974,21.5384615 25.5769231,21.5384615 C24.9679487,21.5384615 24.6025641,21.9076923 24.6025641,22.4 C24.6025641,22.7692308 24.724359,23.0153846 25.4551282,23.7538462 L25.9423077,24.2461538 C26.6730769,24.8615385 26.9166667,25.2307692 26.9166667,25.9692308 C26.9166667,27.0769231 25.8205128,28.0615385 24.2371795,28.0615385 C23.3846154,28.0615385 22.8974359,27.8153846 22.8974359,27.2 C23.0192308,26.9538462 23.0192308,26.8307692 23.1410256,26.7076923 Z" id="Shape" fill="#1D1D1B"></path>
                <path d="M28.7435897,22.7692308 L28.9871795,21.7846154 C28.6217949,21.7846154 28.5,21.7846154 28.1346154,21.7846154 L28.1346154,21.5384615 C28.6217949,20.9230769 29.3525641,20.3076923 30.0833333,19.8153846 L30.3269231,19.8153846 L30.0833333,21.0461538 L30.4487179,21.0461538 C30.8141026,21.0461538 31.1794872,21.0461538 31.5448718,20.9230769 C31.5448718,21.5384615 31.1794872,21.7846154 30.3269231,21.7846154 L29.9615385,21.7846154 L29.5961538,23.3846154 C29.474359,24.1230769 29.3525641,25.2307692 29.3525641,25.8461538 C29.3525641,26.8307692 29.8397436,27.2 30.4487179,27.2 C30.6923077,27.2 30.8141026,27.2 31.0576923,27.0769231 L31.0576923,27.3230769 C30.9358974,27.6923077 30.4487179,28.0615385 29.7179487,28.0615385 C28.7435897,28.0615385 28.2564103,27.4461538 28.2564103,26.2153846 C28.2564103,25.3538462 28.5,23.8769231 28.7435897,22.7692308 Z" id="Shape" fill="#1D1D1B"></path>
                <path d="M34.7115385,20.8 C35.6858974,20.8 36.2948718,21.2923077 36.2948718,22.2769231 C36.2948718,24 34.5897436,24.9846154 32.8846154,24.9846154 C32.8846154,26.7076923 33.3717949,27.2 34.224359,27.2 C34.7115385,27.2 35.4423077,26.9538462 35.8076923,26.4615385 C35.8076923,26.4615385 35.9294872,26.7076923 35.9294872,26.8307692 C35.9294872,27.5692308 34.9551282,28.0615385 33.8589744,28.0615385 C32.6410256,28.0615385 31.7884615,27.3230769 31.7884615,25.4769231 C31.7884615,22.2769231 33.3717949,20.8 34.7115385,20.8 Z M35.1987179,22.5230769 C35.1987179,21.7846154 34.9551282,21.5384615 34.4679487,21.5384615 C33.8589744,21.5384615 32.8846154,22.6461538 32.8846154,24.3692308 C34.224359,24.3692308 35.1987179,23.6307692 35.1987179,22.5230769 Z" id="Shape" fill="#1D1D1B"></path>
                <path d="M37.7564103,21.6615385 L36.9038462,21.4153846 L36.9038462,21.1692308 C37.3910256,21.0461538 37.7564103,20.9230769 38.2435897,20.9230769 C38.4871795,20.9230769 38.6089744,20.9230769 38.8525641,21.0461538 L38.3653846,23.1384615 L39.0961538,21.9076923 C39.4615385,21.2923077 39.8269231,21.0461538 40.3141026,21.0461538 C40.6794872,21.0461538 40.8012821,21.2923077 40.8012821,21.5384615 C40.8012821,21.7846154 40.8012821,22.0307692 40.6794872,22.2769231 C40.5576923,22.2769231 40.4358974,22.2769231 40.1923077,22.2769231 C39.3397436,22.2769231 38.3653846,23.2615385 38.2435897,25.9692308 L38.1217949,28.0615385 L36.9038462,28.0615385 L37.7564103,21.6615385 Z" id="Shape" fill="#1D1D1B"></path>
                <path d="M41.4102564,25.4769231 L41.8974359,22.5230769 L42.0192308,21.6615385 L41.1666667,21.4153846 L41.1666667,21.1692308 C41.6538462,21.0461538 42.1410256,20.9230769 42.6282051,20.9230769 C42.8717949,20.9230769 43.1153846,20.9230769 43.2371795,21.0461538 L42.6282051,25.3538462 C42.6282051,25.8461538 42.5064103,26.5846154 42.5064103,26.9538462 C42.5064103,27.4461538 42.6282051,27.6923077 43.1153846,27.8153846 L43.1153846,28.0615385 C42.8717949,28.1846154 42.5064103,28.3076923 42.0192308,28.3076923 C41.5320513,28.3076923 41.2884615,28.0615385 41.2884615,27.6923077 C41.1666667,26.9538462 41.2884615,25.9692308 41.4102564,25.4769231 Z M42.1410256,18.7076923 C42.1410256,18.2153846 42.5064103,17.8461538 42.9935897,17.8461538 C43.3589744,17.8461538 43.6025641,18.0923077 43.6025641,18.5846154 C43.6025641,19.0769231 43.2371795,19.4461538 42.75,19.4461538 C42.3846154,19.4461538 42.1410256,19.2 42.1410256,18.7076923 Z" id="Shape" fill="#1D1D1B"></path>
                <path d="M47.1346154,20.8 C48.1089744,20.8 48.7179487,21.2923077 48.7179487,22.2769231 C48.7179487,24 47.0128205,24.9846154 45.3076923,24.9846154 C45.3076923,26.7076923 45.7948718,27.2 46.6474359,27.2 C47.1346154,27.2 47.8653846,26.9538462 48.2307692,26.4615385 C48.2307692,26.4615385 48.3525641,26.7076923 48.3525641,26.8307692 C48.3525641,27.5692308 47.3782051,28.0615385 46.2820513,28.0615385 C45.0641026,28.0615385 44.2115385,27.3230769 44.2115385,25.4769231 C44.2115385,22.2769231 45.7948718,20.8 47.1346154,20.8 Z M47.6217949,22.5230769 C47.6217949,21.7846154 47.3782051,21.5384615 46.8910256,21.5384615 C46.2820513,21.5384615 45.3076923,22.6461538 45.3076923,24.3692308 C46.6474359,24.3692308 47.6217949,23.6307692 47.6217949,22.5230769 Z" id="Shape" fill="#1D1D1B"></path>
                <path d="M52.0064103,21.6615385 L51.3974359,21.4153846 L51.3974359,21.1692308 C51.8846154,21.0461538 52.1282051,20.9230769 52.6153846,20.9230769 C52.8589744,20.9230769 52.9807692,20.9230769 53.224359,21.0461538 L53.5897436,26.9538462 C54.6858974,25.6 55.4166667,23.6307692 55.4166667,22.1538462 C55.4166667,21.7846154 55.1730769,21.5384615 54.9294872,21.4153846 L54.9294872,21.1692308 C55.1730769,21.0461538 55.4166667,20.9230769 55.7820513,20.9230769 C56.2692308,20.9230769 56.5128205,21.1692308 56.5128205,21.7846154 C56.5128205,23.2615385 55.1730769,26.3384615 53.7115385,27.6923077 C53.4679487,27.9384615 53.224359,28.0615385 52.9807692,28.1846154 L52.7371795,28.1846154 L52.0064103,21.6615385 Z" id="Shape" fill="#1D1D1B"></path>
                <path d="M56.8782051,25.6 C56.8782051,22.6461538 58.5833333,20.9230769 60.5320513,20.9230769 C61.0192308,20.9230769 61.6282051,21.0461538 62.1153846,21.1692308 L61.6282051,23.7538462 C61.5064103,24.4923077 61.2628205,25.8461538 61.2628205,26.4615385 C61.2628205,27.4461538 61.5064103,27.5692308 61.9935897,27.6923077 L61.9935897,27.9384615 C61.6282051,28.0615385 61.1410256,28.1846154 60.775641,28.1846154 C60.5320513,28.1846154 60.4102564,28.1846154 60.1666667,28.0615385 L60.5320513,25.8461538 C59.9230769,27.3230769 59.0705128,28.1846154 58.3397436,28.1846154 C57.4871795,28.0615385 56.8782051,27.2 56.8782051,25.6 Z M60.5320513,24.1230769 L60.8974359,21.6615385 C60.6538462,21.6615385 60.4102564,21.5384615 60.1666667,21.5384615 C58.9487179,21.5384615 57.974359,22.7692308 57.974359,25.2307692 C57.974359,26.4615385 58.3397436,26.9538462 58.7051282,26.9538462 C59.3141026,27.0769231 60.1666667,26.0923077 60.5320513,24.1230769 Z" id="Shape" fill="#1D1D1B"></path>
                <path d="M63.9423077,21.6615385 L63.0897436,21.4153846 L63.0897436,21.1692308 C63.5769231,21.0461538 63.9423077,20.9230769 64.5512821,20.9230769 C64.7948718,20.9230769 64.9166667,20.9230769 65.1602564,21.0461538 L64.6730769,23.2615385 C65.2820513,21.7846154 66.2564103,20.9230769 67.2307692,20.9230769 C67.8397436,20.9230769 68.3269231,21.4153846 68.3269231,22.2769231 C68.3269231,22.7692308 68.2051282,23.5076923 68.0833333,24.1230769 L67.8397436,25.7230769 C67.8397436,26.0923077 67.7179487,26.5846154 67.7179487,26.9538462 C67.7179487,27.4461538 67.9615385,27.5692308 68.4487179,27.6923077 L68.4487179,27.9384615 C68.0833333,28.0615385 67.7179487,28.1846154 67.3525641,28.1846154 C66.9871795,28.1846154 66.6217949,27.9384615 66.6217949,27.5692308 C66.6217949,27.2 66.7435897,26.4615385 66.7435897,25.9692308 L66.9871795,24.2461538 C67.1089744,23.7538462 67.1089744,23.1384615 67.1089744,22.7692308 C67.1089744,22.1538462 66.8653846,21.9076923 66.5,21.9076923 C65.6474359,21.9076923 64.5512821,23.5076923 64.4294872,25.4769231 L64.3076923,27.9384615 L63.0897436,27.9384615 L63.9423077,21.6615385 Z" id="Shape" fill="#1D1D1B"></path>
                <path d="M72.3461538,26.2153846 L73.1987179,19.3230769 L72.3461538,19.0769231 L72.3461538,18.8307692 C72.8333333,18.7076923 73.1987179,18.5846154 73.6858974,18.5846154 C74.0512821,18.5846154 74.5384615,18.5846154 74.7820513,18.7076923 L74.7820513,18.9538462 C74.5384615,19.0769231 74.2948718,19.3230769 74.2948718,19.5692308 L73.5641026,25.9692308 C73.1987179,28.8 72.4679487,29.6615385 71.4935897,29.6615385 C71.25,29.6615385 71.0064103,29.6615385 70.8846154,29.5384615 L70.8846154,29.4153846 C71.6153846,28.9230769 72.1025641,27.9384615 72.3461538,26.2153846 Z" id="Shape" fill="#1D1D1B"></path>
                <path d="M75.5128205,25.6 L75.8782051,23.8769231 C76,23.3846154 76.1217949,22.5230769 76.1217949,22.1538462 C76.1217949,21.6615385 75.8782051,21.4153846 75.5128205,21.2923077 L75.5128205,21.0461538 C75.8782051,20.9230769 76.2435897,20.8 76.6089744,20.8 C77.0961538,20.8 77.3397436,21.0461538 77.3397436,21.4153846 C77.3397436,21.9076923 77.2179487,22.8923077 77.0961538,23.6307692 L76.7307692,25.2307692 C76.6089744,25.6 76.6089744,25.9692308 76.6089744,26.3384615 C76.6089744,26.7076923 76.8525641,26.9538462 77.0961538,26.9538462 C77.8269231,26.9538462 78.9230769,25.7230769 79.1666667,23.5076923 L79.2884615,21.0461538 C79.6538462,20.9230769 80.1410256,20.8 80.6282051,20.8 L80.2628205,23.0153846 C80.0192308,24 79.8974359,25.3538462 79.8974359,26.2153846 C79.8974359,27.2 80.0192308,27.3230769 80.5064103,27.4461538 L80.5064103,27.6923077 C80.1410256,27.8153846 79.6538462,27.9384615 79.1666667,27.9384615 C78.9230769,27.9384615 78.8012821,27.9384615 78.5576923,27.8153846 L78.9230769,25.8461538 C78.3141026,26.8307692 77.3397436,27.9384615 76.4871795,27.9384615 C75.8782051,27.9384615 75.3910256,27.4461538 75.3910256,26.5846154 C75.3910256,26.3384615 75.5128205,25.9692308 75.5128205,25.6 Z" id="Shape" fill="#1D1D1B"></path>
                <path d="M81.1153846,26.7076923 C81.4807692,27.0769231 81.9679487,27.3230769 82.5769231,27.3230769 C83.3076923,27.3230769 83.7948718,26.9538462 83.7948718,26.3384615 C83.7948718,25.8461538 83.5512821,25.6 82.9423077,24.8615385 L82.4551282,24.3692308 C81.8461538,23.7538462 81.6025641,23.3846154 81.6025641,22.7692308 C81.6025641,21.7846154 82.4551282,20.8 83.7948718,20.8 C84.8910256,20.8 85.3782051,21.1692308 85.3782051,21.5384615 C85.3782051,21.7846154 85.2564103,22.1538462 85.1346154,22.2769231 C84.7692308,21.7846154 84.1602564,21.5384615 83.5512821,21.5384615 C82.9423077,21.5384615 82.5769231,21.9076923 82.5769231,22.4 C82.5769231,22.7692308 82.6987179,23.0153846 83.4294872,23.7538462 L83.9166667,24.2461538 C84.6474359,24.8615385 84.8910256,25.2307692 84.8910256,25.9692308 C84.8910256,27.0769231 83.7948718,28.0615385 82.2115385,28.0615385 C81.3589744,28.0615385 80.8717949,27.8153846 80.8717949,27.2 C80.9935897,26.9538462 80.9935897,26.8307692 81.1153846,26.7076923 Z" id="Shape" fill="#1D1D1B"></path>
                <path d="M86.7179487,22.7692308 L86.9615385,21.7846154 C86.5961538,21.7846154 86.474359,21.7846154 86.1089744,21.7846154 L86.1089744,21.5384615 C86.5961538,20.9230769 87.3269231,20.3076923 88.0576923,19.8153846 L88.3012821,19.8153846 L88.0576923,21.0461538 L88.4230769,21.0461538 C88.7884615,21.0461538 89.1538462,21.0461538 89.5192308,20.9230769 C89.5192308,21.5384615 89.1538462,21.7846154 88.3012821,21.7846154 L87.9358974,21.7846154 L87.6923077,23.2615385 C87.5705128,24 87.4487179,25.1076923 87.4487179,25.7230769 C87.4487179,26.7076923 87.9358974,27.0769231 88.5448718,27.0769231 C88.7884615,27.0769231 88.9102564,27.0769231 89.1538462,26.9538462 L89.1538462,27.2 C89.0320513,27.5692308 88.5448718,27.9384615 87.8141026,27.9384615 C86.8397436,27.9384615 86.3525641,27.3230769 86.3525641,26.0923077 C86.2307692,25.3538462 86.474359,23.8769231 86.7179487,22.7692308 Z" id="Shape" fill="#1D1D1B"></path>
                <path d="M90.1282051,25.4769231 L90.6153846,22.5230769 L90.7371795,21.6615385 L89.8846154,21.4153846 L89.8846154,21.1692308 C90.3717949,21.0461538 90.8589744,20.9230769 91.3461538,20.9230769 C91.5897436,20.9230769 91.8333333,20.9230769 91.9551282,21.0461538 L91.3461538,25.3538462 C91.3461538,25.8461538 91.224359,26.5846154 91.224359,26.9538462 C91.224359,27.4461538 91.3461538,27.6923077 91.8333333,27.8153846 L91.8333333,28.0615385 C91.5897436,28.1846154 91.224359,28.3076923 90.7371795,28.3076923 C90.25,28.3076923 90.0064103,28.0615385 90.0064103,27.6923077 C89.8846154,26.9538462 90.0064103,25.9692308 90.1282051,25.4769231 Z M90.7371795,18.7076923 C90.7371795,18.2153846 91.1025641,17.8461538 91.5897436,17.8461538 C91.9551282,17.8461538 92.1987179,18.0923077 92.1987179,18.5846154 C92.1987179,19.0769231 91.8333333,19.4461538 91.3461538,19.4461538 C91.1025641,19.4461538 90.7371795,19.2 90.7371795,18.7076923 Z" id="Shape" fill="#1D1D1B"></path>
                <path d="M93.6602564,22.7692308 L93.9038462,21.7846154 C93.5384615,21.7846154 93.4166667,21.7846154 93.0512821,21.7846154 L93.0512821,21.5384615 C93.5384615,20.9230769 94.2692308,20.3076923 95,19.8153846 L95.2435897,19.8153846 L95,21.0461538 L95.3653846,21.0461538 C95.7307692,21.0461538 96.0961538,21.0461538 96.4615385,20.9230769 C96.4615385,21.5384615 96.0961538,21.7846154 95.2435897,21.7846154 L94.8782051,21.7846154 L94.6346154,23.2615385 C94.5128205,24 94.3910256,25.1076923 94.3910256,25.7230769 C94.3910256,26.7076923 94.8782051,27.0769231 95.4871795,27.0769231 C95.7307692,27.0769231 95.8525641,27.0769231 96.0961538,26.9538462 L96.0961538,27.2 C95.974359,27.5692308 95.4871795,27.9384615 94.7564103,27.9384615 C93.7820513,27.9384615 93.2948718,27.3230769 93.2948718,26.0923077 C93.1730769,25.3538462 93.4166667,23.8769231 93.6602564,22.7692308 Z" id="Shape" fill="#1D1D1B"></path>
                <path d="M97.0705128,25.4769231 L97.5576923,22.5230769 L97.6794872,21.6615385 L96.8269231,21.4153846 L96.8269231,21.1692308 C97.3141026,21.0461538 97.8012821,20.9230769 98.2884615,20.9230769 C98.5320513,20.9230769 98.775641,20.9230769 98.8974359,21.0461538 L98.2884615,25.3538462 C98.2884615,25.8461538 98.1666667,26.5846154 98.1666667,26.9538462 C98.1666667,27.4461538 98.2884615,27.6923077 98.775641,27.8153846 L98.775641,28.0615385 C98.5320513,28.1846154 98.1666667,28.3076923 97.6794872,28.3076923 C97.1923077,28.3076923 96.9487179,28.0615385 96.9487179,27.6923077 C96.8269231,26.9538462 96.9487179,25.9692308 97.0705128,25.4769231 Z M97.6794872,18.7076923 C97.6794872,18.2153846 98.0448718,17.8461538 98.5320513,17.8461538 C98.8974359,17.8461538 99.1410256,18.0923077 99.1410256,18.5846154 C99.1410256,19.0769231 98.775641,19.4461538 98.2884615,19.4461538 C98.0448718,19.4461538 97.6794872,19.2 97.6794872,18.7076923 Z" id="Shape" fill="#1D1D1B"></path>
                <path d="M102.794872,20.8 C103.769231,20.8 104.378205,21.2923077 104.378205,22.2769231 C104.378205,24 102.673077,24.9846154 100.967949,24.9846154 C100.967949,26.7076923 101.455128,27.2 102.307692,27.2 C102.794872,27.2 103.525641,26.9538462 103.891026,26.4615385 C103.891026,26.4615385 104.012821,26.7076923 104.012821,26.8307692 C104.012821,27.5692308 103.038462,28.0615385 101.942308,28.0615385 C100.724359,28.0615385 99.8717949,27.3230769 99.8717949,25.4769231 C99.75,22.2769231 101.455128,20.8 102.794872,20.8 Z M103.160256,22.5230769 C103.160256,21.7846154 102.916667,21.5384615 102.429487,21.5384615 C101.820513,21.5384615 100.846154,22.6461538 100.846154,24.3692308 C102.307692,24.3692308 103.160256,23.6307692 103.160256,22.5230769 Z" id="Shape" fill="#1D1D1B"></path>
                <path d="M110.224359,20.8 C111.198718,20.8 111.807692,21.2923077 111.807692,22.2769231 C111.807692,24 110.102564,24.9846154 108.397436,24.9846154 C108.397436,26.7076923 108.884615,27.2 109.737179,27.2 C110.224359,27.2 110.955128,26.9538462 111.320513,26.4615385 C111.320513,26.4615385 111.442308,26.7076923 111.442308,26.8307692 C111.442308,27.5692308 110.467949,28.0615385 109.371795,28.0615385 C108.153846,28.0615385 107.301282,27.3230769 107.301282,25.4769231 C107.179487,22.2769231 108.884615,20.8 110.224359,20.8 Z M110.589744,22.5230769 C110.589744,21.7846154 110.346154,21.5384615 109.858974,21.5384615 C109.25,21.5384615 108.275641,22.6461538 108.275641,24.3692308 C109.737179,24.3692308 110.589744,23.6307692 110.589744,22.5230769 Z" id="Shape" fill="#1D1D1B"></path>
                <path d="M113.269231,21.6615385 L112.416667,21.4153846 L112.416667,21.1692308 C112.903846,21.0461538 113.269231,20.9230769 113.878205,20.9230769 C114.121795,20.9230769 114.24359,20.9230769 114.487179,21.0461538 L114,23.2615385 C114.608974,21.7846154 115.583333,20.9230769 116.557692,20.9230769 C117.166667,20.9230769 117.653846,21.4153846 117.653846,22.2769231 C117.653846,22.7692308 117.532051,23.5076923 117.410256,24.1230769 L117.166667,25.7230769 C117.166667,26.0923077 117.044872,26.5846154 117.044872,26.9538462 C117.044872,27.4461538 117.288462,27.5692308 117.775641,27.6923077 L117.775641,27.9384615 C117.410256,28.0615385 117.044872,28.1846154 116.679487,28.1846154 C116.314103,28.1846154 115.948718,27.9384615 115.948718,27.5692308 C115.948718,27.2 116.070513,26.4615385 116.070513,25.9692308 L116.314103,24.2461538 C116.435897,23.7538462 116.435897,23.1384615 116.435897,22.7692308 C116.435897,22.1538462 116.192308,21.9076923 115.826923,21.9076923 C114.974359,21.9076923 113.878205,23.5076923 113.75641,25.4769231 L113.634615,27.9384615 L112.416667,27.9384615 L113.269231,21.6615385 Z" id="Shape" fill="#1D1D1B"></path>
                <path d="M121.794872,19.3230769 L121.064103,19.0769231 L121.064103,18.8307692 C121.551282,18.7076923 121.794872,18.5846154 122.282051,18.5846154 C122.647436,18.5846154 123.012821,18.5846154 123.378205,18.7076923 L123.378205,18.9538462 C123.134615,19.0769231 123.012821,19.2 123.012821,19.3230769 L123.865385,26.3384615 L126.423077,19.2 L125.692308,18.9538462 L125.692308,18.7076923 C126.179487,18.5846154 126.544872,18.4615385 127.032051,18.4615385 C127.275641,18.4615385 127.641026,18.4615385 127.884615,18.5846154 L127.884615,18.8307692 C127.641026,18.9538462 127.519231,19.0769231 127.397436,19.2 L124.108974,27.8153846 L123.134615,27.8153846 L121.794872,19.3230769 Z" id="Shape" fill="#1D1D1B"></path>
                <path d="M130.198718,20.8 C131.173077,20.8 131.782051,21.2923077 131.782051,22.2769231 C131.782051,24 130.076923,24.9846154 128.371795,24.9846154 C128.371795,26.7076923 128.858974,27.2 129.711538,27.2 C130.198718,27.2 130.929487,26.9538462 131.294872,26.4615385 C131.294872,26.4615385 131.416667,26.7076923 131.416667,26.8307692 C131.416667,27.5692308 130.442308,28.0615385 129.346154,28.0615385 C128.128205,28.0615385 127.275641,27.3230769 127.275641,25.4769231 C127.275641,22.2769231 128.858974,20.8 130.198718,20.8 Z M130.685897,22.5230769 C130.685897,21.7846154 130.442308,21.5384615 129.955128,21.5384615 C129.346154,21.5384615 128.371795,22.6461538 128.371795,24.3692308 C129.711538,24.3692308 130.685897,23.6307692 130.685897,22.5230769 Z" id="Shape" fill="#1D1D1B"></path>
                <path d="M132.75641,25.4769231 L133.24359,22.5230769 L133.365385,21.6615385 L132.512821,21.4153846 L132.512821,21.1692308 C133,21.0461538 133.487179,20.9230769 133.974359,20.9230769 C134.217949,20.9230769 134.461538,20.9230769 134.583333,21.0461538 L133.974359,25.3538462 C133.974359,25.8461538 133.852564,26.5846154 133.852564,26.9538462 C133.852564,27.4461538 133.974359,27.6923077 134.461538,27.8153846 L134.461538,28.0615385 C134.217949,28.1846154 133.852564,28.3076923 133.365385,28.3076923 C132.878205,28.3076923 132.634615,28.0615385 132.634615,27.6923077 C132.634615,26.9538462 132.75641,25.9692308 132.75641,25.4769231 Z M133.487179,18.7076923 C133.487179,18.2153846 133.852564,17.8461538 134.339744,17.8461538 C134.705128,17.8461538 134.948718,18.0923077 134.948718,18.5846154 C134.948718,19.0769231 134.583333,19.4461538 134.096154,19.4461538 C133.730769,19.4461538 133.487179,19.2 133.487179,18.7076923 Z" id="Shape" fill="#1D1D1B"></path>
                <path d="M135.923077,25.4769231 L136.897436,18.2153846 L136.044872,17.9692308 L136.044872,17.7230769 C136.532051,17.6 136.897436,17.4769231 137.50641,17.4769231 C137.75,17.4769231 137.99359,17.4769231 138.115385,17.6 L137.019231,25.2307692 C136.897436,25.7230769 136.897436,26.3384615 136.897436,26.8307692 C136.897436,27.3230769 137.141026,27.5692308 137.50641,27.6923077 L137.50641,27.9384615 C137.262821,28.0615385 136.775641,28.1846154 136.410256,28.1846154 C135.923077,28.1846154 135.679487,27.9384615 135.679487,27.4461538 C135.801282,26.9538462 135.923077,25.9692308 135.923077,25.4769231 Z" id="Shape" fill="#1D1D1B"></path>
                <path d="M139.089744,25.4769231 L139.576923,22.5230769 L139.698718,21.6615385 L138.846154,21.4153846 L138.846154,21.1692308 C139.333333,21.0461538 139.820513,20.9230769 140.307692,20.9230769 C140.551282,20.9230769 140.794872,20.9230769 140.916667,21.0461538 L140.307692,25.3538462 C140.307692,25.8461538 140.185897,26.5846154 140.185897,26.9538462 C140.185897,27.4461538 140.307692,27.6923077 140.794872,27.8153846 L140.794872,28.0615385 C140.551282,28.1846154 140.185897,28.3076923 139.698718,28.3076923 C139.211538,28.3076923 138.967949,28.0615385 138.967949,27.6923077 C138.967949,26.9538462 139.089744,25.9692308 139.089744,25.4769231 Z M139.820513,18.7076923 C139.820513,18.2153846 140.185897,17.8461538 140.673077,17.8461538 C141.038462,17.8461538 141.282051,18.0923077 141.282051,18.5846154 C141.282051,19.0769231 140.916667,19.4461538 140.429487,19.4461538 C140.064103,19.4461538 139.820513,19.2 139.820513,18.7076923 Z" id="Shape" fill="#1D1D1B"></path>
                <path d="M141.891026,29.9076923 C141.891026,30.5230769 142.378205,30.8923077 143.108974,30.8923077 C144.205128,30.8923077 144.935897,30.1538462 145.179487,28.4307692 L145.423077,25.8461538 C144.935897,27.2 143.961538,28.1846154 143.230769,28.1846154 C142.621795,28.1846154 141.891026,27.3230769 141.891026,25.6 C141.891026,22.7692308 143.474359,20.9230769 145.423077,20.9230769 C146.032051,20.9230769 146.641026,21.0461538 147.128205,21.1692308 L146.519231,24 C146.397436,24.7384615 146.275641,26.2153846 146.275641,26.9538462 C146.275641,30.2769231 144.692308,31.6307692 142.74359,31.6307692 C141.403846,31.6307692 140.673077,31.0153846 140.673077,30.2769231 C140.673077,29.5384615 141.403846,29.0461538 142.134615,29.0461538 C141.891026,29.1692308 141.891026,29.5384615 141.891026,29.9076923 Z M145.544872,24 L145.910256,21.6615385 C145.666667,21.6615385 145.423077,21.5384615 145.179487,21.5384615 C144.083333,21.5384615 143.108974,22.7692308 143.108974,25.2307692 C143.108974,26.4615385 143.474359,26.9538462 143.839744,26.9538462 C144.326923,27.0769231 145.179487,26.0923077 145.544872,24 Z" id="Shape" fill="#1D1D1B"></path>
                <path d="M148.711538,23.1384615 L149.198718,18.2153846 L148.346154,17.9692308 L148.346154,17.7230769 C148.833333,17.6 149.320513,17.4769231 149.807692,17.4769231 C150.051282,17.4769231 150.294872,17.4769231 150.416667,17.6 L149.685897,22.8923077 C150.294872,21.6615385 151.147436,20.8 152.121795,20.8 C152.852564,20.8 153.217949,21.2923077 153.217949,22.1538462 C153.217949,22.6461538 153.096154,23.3846154 152.974359,24 L152.730769,25.4769231 C152.730769,25.8461538 152.608974,26.4615385 152.608974,26.7076923 C152.608974,27.2 152.852564,27.3230769 153.339744,27.4461538 L153.339744,27.6923077 C152.974359,27.8153846 152.608974,27.9384615 152.24359,27.9384615 C151.878205,27.9384615 151.512821,27.6923077 151.512821,27.3230769 C151.512821,26.9538462 151.634615,26.2153846 151.75641,25.7230769 L152,24.1230769 C152.121795,23.6307692 152.121795,23.0153846 152.121795,22.6461538 C152.121795,22.0307692 151.878205,21.7846154 151.512821,21.7846154 C150.782051,21.7846154 149.685897,23.0153846 149.564103,25.1076923 L149.442308,27.9384615 L148.224359,27.9384615 L148.711538,23.1384615 Z" id="Shape" fill="#1D1D1B"></path>
                <path d="M157.358974,20.8 C158.333333,20.8 158.942308,21.2923077 158.942308,22.2769231 C158.942308,24 157.237179,24.9846154 155.532051,24.9846154 C155.532051,26.7076923 156.019231,27.2 156.871795,27.2 C157.358974,27.2 158.089744,26.9538462 158.455128,26.4615385 C158.455128,26.4615385 158.576923,26.7076923 158.576923,26.8307692 C158.576923,27.5692308 157.602564,28.0615385 156.50641,28.0615385 C155.288462,28.0615385 154.435897,27.3230769 154.435897,25.4769231 C154.435897,22.2769231 156.019231,20.8 157.358974,20.8 Z M157.846154,22.5230769 C157.846154,21.7846154 157.602564,21.5384615 157.115385,21.5384615 C156.50641,21.5384615 155.532051,22.6461538 155.532051,24.3692308 C156.871795,24.3692308 157.846154,23.6307692 157.846154,22.5230769 Z" id="Shape" fill="#1D1D1B"></path>
                <path d="M159.916667,25.4769231 L160.403846,22.5230769 L160.525641,21.6615385 L159.673077,21.4153846 L159.673077,21.1692308 C160.160256,21.0461538 160.647436,20.9230769 161.134615,20.9230769 C161.378205,20.9230769 161.621795,20.9230769 161.74359,21.0461538 L161.134615,25.3538462 C161.134615,25.8461538 161.012821,26.5846154 161.012821,26.9538462 C161.012821,27.4461538 161.134615,27.6923077 161.621795,27.8153846 L161.621795,28.0615385 C161.378205,28.1846154 161.012821,28.3076923 160.525641,28.3076923 C160.038462,28.3076923 159.794872,28.0615385 159.794872,27.6923077 C159.794872,26.9538462 159.916667,25.9692308 159.916667,25.4769231 Z M160.647436,18.7076923 C160.647436,18.2153846 161.012821,17.8461538 161.5,17.8461538 C161.865385,17.8461538 162.108974,18.0923077 162.108974,18.5846154 C162.108974,19.0769231 161.74359,19.4461538 161.25641,19.4461538 C160.891026,19.4461538 160.647436,19.2 160.647436,18.7076923 Z" id="Shape" fill="#1D1D1B"></path>
                <path d="M162.717949,25.6 C162.717949,22.6461538 164.423077,20.9230769 166.25,20.9230769 C166.371795,20.9230769 166.615385,20.9230769 166.737179,20.9230769 L167.102564,18.3384615 L166.128205,18.0923077 L166.128205,17.8461538 C166.615385,17.7230769 166.980769,17.6 167.711538,17.6 C167.955128,17.6 168.198718,17.6 168.320513,17.7230769 L167.224359,23.7538462 C167.102564,24.3692308 166.858974,25.9692308 166.858974,26.5846154 C166.858974,27.5692308 167.102564,27.6923077 167.589744,27.8153846 L167.589744,28.0615385 C167.102564,28.1846154 166.737179,28.3076923 166.371795,28.3076923 C166.128205,28.3076923 165.884615,28.3076923 165.762821,28.1846154 L166.128205,25.9692308 C165.641026,27.3230769 164.666667,28.3076923 163.814103,28.3076923 C163.326923,28.0615385 162.717949,27.2 162.717949,25.6 Z M166.25,24.1230769 L166.615385,21.6615385 C166.371795,21.6615385 166.128205,21.5384615 165.884615,21.5384615 C164.666667,21.5384615 163.692308,22.6461538 163.692308,25.2307692 C163.692308,26.4615385 164.057692,26.9538462 164.423077,26.9538462 C165.153846,27.0769231 166.00641,26.2153846 166.25,24.1230769 Z" id="Shape" fill="#1D1D1B"></path>
            </g>
        </g>
    </g>
</svg>
